<?xml version="1.0" encoding="UTF-8"?>
<svg id="somProjectLogo" xmlns="http://www.w3.org/2000/svg" version="1.1" viewBox="0 0 637.4 370.1">
  <!-- Generator: Adobe Illustrator 29.0.1, SVG Export Plug-In . SVG Version: 2.1.0 Build 192)  -->
  <defs>
    <style>
      .st0 {
        fill: #fff;
      }

      .st1 {
        fill: #fccd00;
      }
    </style>
  </defs>
  <path class="st0" d="M606,342.5v-77.2h31.4v-17.6h-87.7v17.6h31.4v77.2h25ZM537,312.4c-5.7,3.9-11.4,6.9-17.1,8.9-5.7,2-11.4,3-17.1,3-8.9,0-15.9-2.7-21.1-7.9-5.2-5.3-7.9-12.4-7.9-21.2s2.7-16.3,8.2-21.5c5.5-5.2,13-7.8,22.6-7.8s10.6.8,15.9,2.5c5.3,1.7,10.5,4.2,15.8,7.6v-22.2c-5.4-2.6-10.8-4.6-16.3-5.8-5.5-1.3-11.1-1.9-16.9-1.9-16.1,0-29.1,4.5-38.9,13.5-9.8,9-14.7,20.9-14.7,35.6s1.3,13.6,3.8,19.6c2.5,6.1,6.2,11.4,10.9,16,4.7,4.4,10.1,7.7,16.3,10,6.2,2.3,13,3.4,20.4,3.4s12.8-.8,18.8-2.4c6-1.6,11.8-4,17.5-7.2v-22.2h0ZM431.9,342.5v-17.7h-40.8v-22.6h37.9v-17.6h-37.9v-19.3h39.7v-17.5h-63.4v94.8h64.5ZM311.2,370.1c11-.3,18.8-3.2,23.3-8.5,4.5-5.4,6.7-14.7,6.7-27.9v-85.9h-23.7v85.1c0,7.7-1,12.7-3,14.9-2,2.3-5.9,3.5-11.7,3.7l8.4,18.7ZM195.7,314.7c2.5,6,6.2,11.3,11.1,15.9,4.9,4.6,10.3,8,16.4,10.2,6.1,2.3,12.8,3.4,20.2,3.4s14.2-1.2,20.4-3.4c6.1-2.3,11.6-5.7,16.4-10.2,4.9-4.6,8.6-9.9,11.1-15.9,2.5-6,3.8-12.5,3.8-19.5s-1.3-13.6-3.8-19.6c-2.5-6-6.2-11.3-11.1-16-4.8-4.5-10.2-7.8-16.3-10-6.1-2.2-12.9-3.3-20.5-3.3s-14.2,1.1-20.3,3.3c-6.1,2.2-11.5,5.6-16.3,10.1-4.9,4.7-8.6,10-11.1,16-2.5,6-3.7,12.5-3.7,19.6s1.2,13.5,3.8,19.5M224,274.3c5.1-5.5,11.6-8.2,19.4-8.2s14.4,2.7,19.5,8.2c5.1,5.5,7.6,12.4,7.6,20.9s-2.5,15.4-7.6,20.8c-5.1,5.4-11.6,8.2-19.5,8.2s-14.4-2.7-19.4-8.2c-5.1-5.4-7.6-12.4-7.6-20.8s2.5-15.5,7.6-20.9ZM123.4,342.5v-38.5c.3,0,.8,0,1.3,0,.6,0,1.1,0,1.4,0,4.5,0,8.1.8,10.6,2.4,2.5,1.6,4.7,4.6,6.6,8.9l12,27.3h26.8l-15.1-32.5c-1.4-3.1-3-5.6-4.9-7.6-1.9-2-4-3.4-6.4-4.3,5.6-2.6,9.7-5.7,12.5-9.5,2.7-3.7,4.1-8.2,4.1-13.4,0-9.4-3.1-16.3-9.2-20.8-6.2-4.5-15.7-6.7-28.5-6.7h-35v94.8h23.8ZM123.4,286.6v-22.1h11.4c4.2,0,7.4.9,9.7,2.8,2.2,1.9,3.3,4.6,3.3,8.2s-1.1,6.5-3.2,8.4c-2.2,1.8-5.4,2.7-9.8,2.7h-11.4ZM30,342.5v-37.1h9.2c13.2,0,23.1-2.4,29.8-7.3,6.6-4.9,9.9-12.2,9.9-22.1s-3.1-16.7-9.2-21.3c-6.2-4.7-15.7-7-28.5-7H6.1v94.8h23.9,0ZM30,287v-21.7h11.4c4.2,0,7.4.9,9.7,2.8,2.3,1.9,3.4,4.5,3.4,8s-1.1,6.4-3.3,8.2c-2.2,1.8-5.5,2.7-10,2.7h-11.2Z"/>
  <path class="st0" d="M37,211.6c11.6,3.3,23.6,5,36,5,24.8,0,44.2-5.4,58.2-16.3,14-10.9,21-25.8,21-44.8s-2.2-21.6-6.7-30.3c-4.4-8.6-11-15.7-19.7-21.1-8.3-5.2-22-11.4-41.1-18.6-3.9-1.5-6.8-2.6-8.7-3.4-9.1-3.4-15.8-7-20.3-10.8-4.5-3.8-6.7-7.8-6.7-12.1s2.5-9.4,7.5-12.2c5-2.8,12.3-4.3,21.8-4.3s18.5,1.7,29.2,5c10.7,3.3,22.8,8.5,36.2,15.4V21c-11.2-5.5-22.5-9.6-33.9-12.5-11.4-2.8-22.9-4.3-34.2-4.3-22.4,0-40.6,5.5-54.6,16.4C7,31.7,0,45.9,0,63.4s5.4,30.3,16.1,41c10.7,10.7,30.4,21.2,58.9,31.5,11.5,4.1,18.9,7.7,22,10.6,3.2,3,4.7,6.9,4.7,11.8s-2.5,10.7-7.6,13.7c-5,3.1-12.5,4.6-22.3,4.6s-19.8-1.9-30.1-5.7c-10.4-3.8-23.1-10.5-38.1-20.1v45.7c10.7,6.7,21.8,11.7,33.4,15Z"/>
  <path class="st0" d="M468.4,212.9v-127.2l59,75.2,59.5-75.2v127.2h49.2V7.5h-44.2l-64.5,82.7L463.1,7.5h-44.2v205.4h49.5Z"/>
  <path class="st1" d="M209,145.2c1,1,2.2,2.4,3.8,3.9l-.4.3h0c2.1,2.7,4.4,5.2,6.7,7.6h0c.3.4.6.7.9,1l1,1c-3.5-2.8-6.5-5.8-9.2-8.9-1.7-2.1-3.2-4.3-4.7-6.5.3.2.9.8,1.6,1.6M270.7,220c-2.8,0-5.3-.2-7.7-.7,2.5.3,5.1.6,7.7.7ZM204.1,157.6c-.4-.8-.8-1.7-1.3-2.5.6,1.1,1.2,2.2,1.9,3.3-.2-.3-.4-.6-.7-.8ZM209.5,165.5c-.5-.3-1-.7-1.5-1.1-.7-1.1-1.4-2.3-2.1-3.4.6.7,1.2,1.5,1.8,2.2.5.8,1.1,1.6,1.7,2.3ZM286.3,172s-.2.3-.3.5c-3.2.3-6.4.5-9.6.5,3.3-.1,6.6-.4,9.9-.9M245.1,37.7c-.4.1-.7.2-1.1.3-1.4.5-2.8,1-4.2,1.6-2.2.8-4.3,1.6-6.4,2.5,1.3-.7,2.6-1.4,3.9-2,2.5-1,5.1-1.8,7.7-2.5M231.2,44c-6,3.5-11.2,7.5-15.1,10.9,3.3-3.2,7.1-6.2,11.1-8.9,1.3-.7,2.6-1.3,4-2ZM280.6,218.4c-1,.3-2,.5-2.9.7-.2-.2-.3-.3-.6-.5,1.2,0,2.3-.1,3.5-.2ZM262.2,207.1c-3.5-.4-7-1.1-10.4-1.9-1.7-.4-3.5-.9-5.3-1.5-.3-.7-.6-1.3-.9-2-.3-.7-.6-1.4-.9-2.2,5.6,3,11.5,5.5,17.5,7.4M218.2,153.7h0v.2c.7.6,1.5,1.2,2.4,1.8l-.4.5h0c2.7,2.5,5.6,4.8,8.7,7,1,1.1,1.7,2,2.2,2.8-.5-.3-1.1-.7-1.7-1-3.3-2.4-6.3-4.9-8.8-7.3-2.5-2.5-5-5.2-7.2-8,1.5,1.3,3,2.7,4.7,4M337.1,143.4c.8-1.2,1.6-2.5,2.4-3.8,0,.2,0,.4,0,.6-.8,1.1-1.6,2.2-2.4,3.2ZM340.8,134.1h0c.2-.4.3-.7.5-1.1-.2.3-.3.7-.5,1.1M327.7,53.8s0,0-.1,0c0,0,0,0,.1,0ZM236.1,33.2c4.2-1.8,8.6-3.4,13.1-4.7h.1c2.7-.2,5.4-.2,8-.2,7.2,0,14.3.7,21.4,2-5.3-1-10.7-1.5-16-1.5-9.2,0-18.1,1.4-26.6,4.3M282.2,25.2c1.6.1,3.2.2,4.9.4,1.2.5,2.3,1,3.5,1.5.1.2.3.4.4.6-2.8-.9-5.8-1.8-8.7-2.5ZM289.5,25.9s.2,0,.3,0h0s0,.1.1.2c-.2,0-.3-.2-.5-.2M387.7,114.8c-.7,1.9-1.5,4-2.5,6.2.7-5.1.9-10.1.8-14.9,0-4-.4-8.2-1-12.5l.3-.2h0c0,0-.2-.4-.3-.5-1.2-8.6-3-16.2-4.3-21.8-.4-1.5-.7-2.9-1-4.1,5,11.8,8.3,24.4,9.2,35.6.2,2.8.3,5.7.3,8.6-.4,1-.9,2.2-1.4,3.5M384.5,125.9c.2-.9.3-1.7.4-2.5,1.3-3,2.5-5.9,3.4-8.4v-.2c.3-.6.5-1.2.8-1.8-.2,9.9-1.7,19.6-4.5,28.8-.3.2-.8.4-1.3.8,1-5.6,1.3-11.2,1.2-16.8ZM382.6,146.7c.3-.6.6-1,.9-1.5h0c0-.1-.5-.4-.5-.4,0-.4.2-.8.2-1.2.5-.4.8-.7,1.2-.8-.7,2.2-1.5,4.4-2.3,6.6-.1.3-.2.5-.3.8.3-1.2.6-2.3.8-3.5M379.6,155.1c-2.4,5.2-5.2,10.1-8.5,14.7-1.2,1.1-2.4,2-3.7,2.8-.4.2-.8.5-1.2.7.2-.3.3-.7.5-1,2.8-4.5,5.2-9.3,7.1-14.1,2.8-2.9,5.4-6.2,7.6-9.7-.5,2.2-1.2,4.4-1.9,6.6M362.4,183.7c-1.3,1.2-2.7,2.3-4.1,3.4,1.1-1.5,2-3,2.8-4.2,3.8-3.9,7.3-8.1,10.4-12.6,1-.8,1.9-1.8,2.8-2.8-1.8,3.5-3.8,6.9-6,10-2.5,2.8-4.4,4.8-6,6.2ZM346.4,195.8c2.8-1.5,5.5-3.2,8.1-5l.5.5h0c.6-.7,1.2-1.4,1.8-2.1,2.2-1.6,4.2-3.3,6.1-5,.5-.5,1.2-1.1,1.8-1.7-.3.3-.5.6-.8.9-1.4,1.7-3,3.3-4.5,5h0c0-.1,0,0,0,0-4.5,4-9.2,6.9-14.4,8.8.5-.4,1-.8,1.5-1.3M341.5,198.8c-1.2.8-2.3,1.7-3.5,2.5.5-.6.9-1.2,1.3-1.7.2,0,.3-.2.4-.2h.2c.6-.2,1.1-.4,1.6-.5M313.2,211.3c.9-.3,1.5-.6,1.7-.7,2.3-1,4.7-2.2,7-3.5,5.5-1.8,10.9-4.1,16-6.8-.6.8-1.3,1.6-2,2.3-.4.3-.8.5-1.2.8-4.5,2.8-9.1,5.2-13.7,7.3-1.5.2-3,.4-4.4.5-1.1,0-2.2,0-3.4,0M283.6,218.1c5-.5,10-1.4,15.1-2.5,5.7-1.3,10.1-2.7,12.9-3.7,1.7,0,3.4,0,5.1,0,.7,0,1.5-.1,2.2-.2-8.2,3.4-16.6,5.7-25.6,6.9-4.8.7-9.8,1-14.8,1,1.7-.4,3.5-.9,5.2-1.5M265.3,218.5c3.4.3,7,.3,10.7.2.3.2.6.4.8.6-.5.1-1.1.2-1.6.3-5.1-.1-10.3-.6-15.5-1.4h0c-.3-.2-.7-.3-1-.5,2.3.3,4.5.6,6.6.8ZM262.7,213v.4h.2c.5,0,1.1-.1,1.8-.2,2.7.2,5.4.3,8,.3l.3,2.3c.1.8,1,1.5,2.1,2.2-.9,0-1.8,0-2.7,0-2.4,0-4.8,0-7-.3-2.6-.2-5.4-.5-8.2-1-2.1-1.3-4.1-3.2-5.9-5.5,3.8.8,7.7,1.3,11.5,1.7M251.7,205.9c4.5,1.1,9.2,1.8,13.9,2.3.3,0,.6.2.9.2,1.9.5,3.8,1,5.7,1.3l.2,1.5c-6.5-.3-13.1-1.2-19.6-2.7h-.1l-.2.6h.1c5.7,1.3,11.5,2.2,17.3,2.6-1.8.3-3.6.6-5.4.8-4.7-.3-9.4-1-14.1-2-1.3-1.7-2.5-3.7-3.6-5.9,1.6.5,3.2.9,4.8,1.3M247.3,196.9c2.4.7,4.9,1.4,7.3,1.9,5.5,1.9,11.1,3.4,16.8,4.4.2,1.4.4,2.9.7,4.7-2.1,0-4.2-.2-6.2-.3-7.4-2-14.6-5-21.4-8.8-.4-.9-.8-1.9-1.2-3,1.4.4,2.8.8,4.1,1.1M238.4,191.4c1,.6,2.1,1.2,3.2,1.7.2.5.4,1.1.6,1.7-3.2-1-6.5-2.3-9.7-3.7-.8-.6-1.5-1.2-2.3-1.8,2.7.8,5.5,1.5,8.2,2.1ZM210.9,167.3c6.3,8,13.9,15.2,22.1,20.7,1.2.8,2.4,1.6,3.7,2.3-2.6-.6-5.2-1.3-7.8-2.1-7.3-6.1-14.1-13.7-19.7-22.2.6.4,1.2.9,1.8,1.3M232.7,177.9c-2.7-2.1-5.2-4.4-7.6-6.8-4-3.9-7.6-8.3-11-13,3.5,4.2,8.4,9.2,12.2,12.3,2.7,2.2,5.6,4.3,8.7,6.1.4.3.8.6,1.3.8.2.6.4,1.2.6,1.8-1.3-.3-2.7-.8-4.2-1.2M235.3,175.9h0c-1.5-1-3-2-4.4-3.1,1.5.8,3,1.6,4.5,2.3.1.4.3.7.4,1.1-.2-.1-.3-.2-.5-.3M250,179.2l.3.3c-5.5-2.3-10.9-5.2-15.9-8.5-.2-.5-.4-.9-.6-1.3,5.1,3.7,10.6,6.9,16.2,9.6ZM264.2,177.2c-2-.5-3.9-1.1-5.9-1.7h-.1l-.2.5c-1.1-.2-2.2-.5-3.3-.8-8.8-2.8-17.5-7.2-25.3-12.7-.5-.6-1-1.1-1.5-1.6,2.2,1.2,4.5,2.3,6.9,3.5,3.5,1.8,7,3.4,10.6,4.8,8.9,3.8,17.6,6.7,25.9,8.6-2.3-.1-4.8-.3-7.2-.7M285.1,173.5c-.7,0-1.3.1-2,.2-.9,0-1.8.1-2.7.2h-1.8c-.3,0-.6-.1-.9-.2-.2,0-.4,0-.6-.1,2.8,0,5.6-.2,8.3-.4,0,.1-.2.2-.3.4M321.4,156.7c1.2-.9,2.3-1.7,3.5-2.3-.8.7-1.7,1.4-2.6,2-.3,0-.6.2-.9.3ZM327.1,152.6c-.7.3-1.3.6-2,1,1.6-1.4,3.2-2.8,4.8-4.3l.3.3c-1,1-2,2-3.2,3M335.7,150.5l-.2.2h-.8c-1.2,0-2.4.2-3.7.4.7-.7,1.3-1.5,1.9-2.2,2.4-2.4,4.7-5,6.7-7.7,0,.4.2.8.2,1.2-1.3,2.8-2.7,5.5-4.2,8.1M343.1,134.2c0,.2-.2.5-.3.7-.6.7-1.2,1.3-1.9,2,.3-.6.6-1.2.9-1.8.5-.3.8-.7,1.2-1ZM348.2,118c.2.2.5.3.8.3-.7,3.5-1.7,6.9-3,10.1.8-3.4,1.5-7,1.8-10.7,0,0,.2.2.3.2M343.7,77c-.4-.7-.8-1.3-1.2-2,0-.2-.2-.3-.2-.5.5.8,1,1.6,1.5,2.4M329.8,54.4c-.3-.3-.6-.7-1-1.1.7.5,1.3,1,2,1.6.4.4.8.8,1.2,1.2-.8-.6-1.5-1.1-2.3-1.7M337.2,58.8s.2.2.3.3c-.3,0-.5,0-.7.1-1.8-1.7-3.6-3.3-5.5-4.8-1-1-2.1-1.9-3.2-2.8-.2-.8-.4-1.8-.8-2.8,3.6,3.1,6.9,6.5,9.9,9.9ZM320.8,49.4c.5.3,1,.6,1.7,1,1,.8,2,1.7,3.1,2.7.1.2.2.3.3.4-.5-.4-1.1-.8-1.7-1.2h-.2c0-.1-.4-.7-.4-.7h-.1c-.4-.2-.8-.6-1.3-.9-.5-.5-1.1-.9-1.7-1.4,0,0,.1,0,.2,0M267.9,26.9c2.6.3,5.3.8,7.9,1.4v.3h.2c.3,0,.6,0,1,0,.2,0,.5.1.7.2-.3,0-.6,0-.9,0h-.1v.6c-6.3-1.1-12.7-1.6-19.1-1.6s-3.5,0-5.3.1c2.7-.7,5.5-1.2,8.3-1.6,2.5.2,5,.4,7.6.8M278.8,27.9c-.7,0-1.3,0-2,0-2.9-.7-5.9-1.2-8.9-1.6-1.6-.2-3.1-.4-4.7-.5,4-.5,8.2-.7,12.3-.7h3c4.3,1,8.7,2.1,12.8,3.5.3.4.5.8.8,1.3-4.7-1.3-9.4-2-13.4-2M294.4,24.8l-.2.4h.1c1.2.5,2.4,1,3.7,1.6-2.5-.5-5.2-1-7.8-1.4l-.5-.8s-.7-1.2-.8-1.3c1.8.5,3.7,1,5.5,1.6M301.2,27.5c-1-.5-2-.9-3-1.3,1.5.5,2.9,1.1,4.3,1.7-.4-.1-.8-.2-1.3-.3M298.5,21.9c5.7,2.3,11.3,5,16.5,8.2,0,.5-.1,1.1-.2,1.7-2.7-1-5.4-2-8.1-2.8-5.8-2.7-12-5-18.3-6.6-.9-1.4-1.9-3.1-2.6-4.7,4.3,1.1,8.6,2.5,12.7,4.2M309.9,21.6h-.1l-.2.5h.1c.5.3,1.1.5,1.8.8,1.3,1.3,2.5,2.6,3.7,4h-.4v.2c.2.8.3,1.5.4,2.2-5.2-3.2-10.6-5.9-16.3-8.1-4.3-1.7-8.8-3.2-13.3-4.3-.2-.4-.3-.8-.4-1.2-.5-1.8.5-3.4,1.6-5.2.2-.4.5-.8.7-1.2,9.3,2.9,16.7,6.9,22.6,12.2,0,0-.1,0-.2,0M296.5,9.4c8.9,2.5,17.1,5.8,24.6,9.9,3.1,2.1,6,4.3,8.7,6.5,0,0-.2,0-.2.2h-.2c-1.9,1.2-.9,4.3.2,6.9-.2-.2-.5-.3-.7-.5-1.2-1-2.4-2-3.7-3h0c0,0-.2.2-.2.2-4.4-2.9-8.8-5.3-13.1-7.2-6.2-5.9-14.1-10.4-24.1-13.5.2-.3.3-.6.4-.9,0-.2.1-.3.2-.6,2.9.5,5.7,1.2,8.2,1.9M345.1,36.2c-1.6-1.8-3.3-3.5-4.9-5.1h0c0,0-.4.3-.4.3,0,0-.4-.3-.5-.5h0c0,0,0,0,0,0-1.4-1.2-2.9-2.4-4.4-3.5-.6-.5-1.2-1-1.8-1.6h0c-11.6-10-26.2-18.3-41.1-23.6.3,0,.5-.2.8-.2,8.6,2.8,23.3,9,24.4,9.5,10.9,5.7,20.7,13,29.1,21.5.5,1.8,1.2,3.7,1.8,5.5,0,.2.2.4.2.6-1-1-2-2-3-2.9ZM365.3,50.8c-.5-.8-1.1-1.5-1.7-2.3-2.9-7-6.2-13.6-10.3-20.2,1,1,2,2,3,3.1,3.7,6.4,6.4,12,9.2,19.4,0,0-.1,0-.2,0M371.2,52.1c-1.9-1.1-3.4-1.6-4.6-1.6h-.5c-2.5-6.4-4.9-11.6-7.9-17,5.4,6,10.2,12.6,14.3,19.5-.5-.4-.9-.7-1.3-.9M269.2,208.4c1,0,1.9,0,2.9.1v.5c-.9-.2-1.9-.4-2.9-.7ZM248.9,196.6c-.5-.1-.9-.2-1.4-.3h-.3c0,0-.3-.2-.5-.2h-.1c-1.2-.3-2.5-.7-3.7-1-.2-.5-.3-1-.5-1.5,2.1,1.1,4.3,2.1,6.5,3.1M283.2,175.5l-.9.9c-4.1-.1-8.4-.5-12.5-1.2-4.4-.7-8.9-1.7-13.3-2.9,3.6.8,7.1,1.5,10.6,1.8,4.1.5,8.4.6,12.6.5,1.2.3,2.4.5,3.5.8M304.5,169.5c-6,2-12.2,3.3-18.5,4,.1-.1.2-.2.3-.3,6.2-.6,12.3-1.8,18.2-3.6M349.9,118.5h.3v.4c0,2.2,0,4.2,0,5.9,0,.2,0,.5,0,.7-.2.7-.3,1.2-.5,1.8-1.3,1.4-2.6,2.7-4.1,4.1,1.8-3.9,3.2-8.3,4.2-12.9h.2M348.6,113c0-.3.1-.7.2-1,0,0,0,.2,0,.2.2.8.5,1.7.8,2.5-.2,1-.3,1.9-.5,2.9-.2,0-.4-.2-.6-.3-.2-.1-.4-.3-.5-.5v-.5c0-.5.2-.9.2-1.4.1-.6.2-1.2.3-2M346.4,83.1v-.2c.2.3.3.5.5.8.6,1.7,1.1,3.4,1.5,5.2-.3-.2-.7-.5-1-.8,0-.2-.2-.4-.2-.6-.1-.4-.2-.7-.3-.9-.2-1-.4-2-.7-3,0-.2.1-.3.2-.5M303.9,39.7c.3.2.6.3,1,.5-.3,0-.5,0-.8.1-1.3-.5-2.7-1.1-4-1.5l-.3-.2s-.3-.3-.5-.5c0,0,0,0,0-.1,1.6.5,3.2,1,4.9,1.6M299.2,37.4c-.3-.1-.7-.2-1-.3,0,0-.2-.2-.2-.2.4.2.8.3,1.2.5ZM281.8,29.9c1.8.5,3.7,1.1,5.5,1.8-.2,0-.4,0-.5,0-1.4-.4-2.8-.7-4.2-1-2-.5-4-.9-6-1.2,1.7.1,3.5.3,5.2.5ZM300.9,28.1c4.3,2,8.5,4.3,12.4,6.9-.7.4-1.3.8-2.1,1.3-.5-.2-1.1-.3-1.7-.5-2.1-1.1-4.2-2.2-6.4-3.2-1.2-.5-2.4-1.1-3.7-1.6-2.8-1.6-5.6-3-8.5-4.3l-.3-.5c3.5.5,6.9,1.2,10.3,2M314.1,34.6s0,0-.1,0c-3.2-2-6.5-3.9-9.9-5.7.8.2,1.6.5,2.4.7,2.7,1.3,5.3,2.7,7.9,4.2,0,.2-.2.5-.2.8M314.7,32.5c0,.2-.1.4-.2.7-1.3-.7-2.6-1.5-3.9-2.2,1.3.5,2.7,1,4,1.5M382,143.7c-.8.7-1.8,1.4-2.7,2,1.9-5.2,3.5-10.8,4.7-16.6,0,4.7-.5,9.4-1.3,14.1-.2.2-.4.3-.6.5M374.8,155.9c1.5-2.8,2.9-5.9,4.2-9.2,1.2-.7,2.4-1.6,3.5-2.5h0c-.2.7-.3,1.5-.5,2.2-2.2,3.7-4.7,7-7.5,10.1,0-.2.2-.5.3-.7ZM369.7,171.8c-2.2,3-4.5,5.8-7,8.5,1.1-1.9,2.2-4,3.2-6.1.7-.3,1.3-.7,2-1.1.7-.4,1.3-.8,1.9-1.3M348.8,193.6c.3-.3.6-.5.8-.8,1.5-1.1,2.9-2.2,4.3-3.4,1.3-1,2.5-2.2,3.8-3.3-.7,1-1.3,2-2,2.9-2.2,1.6-4.5,3.1-6.9,4.5M343.3,190.7l.2-.6c.4-.5.8-1,1.3-1.5,5.3-3.5,10.3-7.7,14.8-12.3,1.5-.3,3-.7,4.5-1.3-2,3-4.2,5.9-6.6,8.7-2.6,3-5.4,6-8.4,8.7-2.5,1.8-5.1,3.6-7.7,5.1-.5.2-.9.4-1.4.7,1.5-2.6,2.5-5.2,3.2-7.4M342.5,191.3c-1,2.7-1.9,5-3.3,7.3-.1,0-.2.1-.4.2h-.1c-1.7.4-3.5.7-5.3.8,3.3-2.5,6.4-5.4,9.2-8.4M330,202.1c.8-.6,1.6-1.2,2.3-1.7,1.2,0,2.3-.2,3.5-.4-1.9.8-3.9,1.5-5.8,2.1M324.9,205.5c1.2-.7,2.3-1.4,3.3-2.2,2.5-.7,5-1.6,7.5-2.5-3.5,1.8-7.1,3.3-10.8,4.7ZM306.4,210.8c1.8-.3,3.5-.6,5.2-.9,2.4-.5,4.8-1.1,7.2-1.8-1.3.7-2.7,1.3-4,1.9,0,0-1.2.5-3.3,1.2-1.7,0-3.3-.2-5-.5M273.4,213.5c5.6,0,11.2-.7,16.6-1.7,4.7.1,9.5-.1,14.2-.7,1.9.3,3.8.6,5.6.7-5.1,1.7-14.8,4.5-26.2,5.7h-.2c-2.4.3-4.9.4-7.2.5l-.2-.2c-.9-.6-2.2-1.5-2.3-2.2l-.3-2.3ZM272.7,212.8c-1.6,0-3.2,0-4.7,0,1.5-.2,3-.5,4.6-.9v.9c.1,0,.1,0,.1,0ZM238.8,185c-2.3-1.7-4.4-3.5-6.5-5.3.7.5,1.4,1,2.1,1.6,1.2.9,2.6,1.7,4,2.5l.4,1.2h0ZM234.8,180.7c-1.2-.8-2.3-1.7-3.4-2.6.3,0,.6.2.9.3,1.8,1.5,3.7,2.9,5.7,4.2v.2c-1.1-.7-2.2-1.4-3.2-2.2ZM237.1,179.8c.2.6.4,1.2.6,1.8-1.3-.9-2.5-1.8-3.7-2.7,1.1.3,2.2.6,3.1.9ZM243.7,174.5c.5.2.9.5,1.3.7.8.7,1.7,1.5,2.7,2.3-5-2.6-9.9-5.6-14.5-9,0,0,0,0,0-.1,3.6,2.4,7.2,4.5,10.5,6.2ZM272.7,179c-1-.2-2.1-.4-3.2-.6,1.8.2,3.7.2,5.4.2,1.5.3,3.1.6,4.6.8-2.3,0-4.6-.2-6.8-.4M269.7,176c4,.6,8,1,12,1.1-.2.2-.4.4-.6.6-2,.2-4,.3-6.1.3h0c-5.3-1-10.7-2.5-16.2-4.3,3.7,1,7.4,1.7,11,2.3M316.6,170.2h0c-.6.5-1.2.8-1.7,1.2h-.2s-.3.2-.5.2c-4.7,1.7-9.6,2.9-14.7,3.7,2.5-1.5,5.2-3.4,8.9-6,.8-.3,1.5-.6,2.4-.9,1.7.4,3.4,1,5.6,1.8M313,168c.2.2.5.4.8.6-.7-.2-1.3-.4-1.9-.6.3-.1.5-.2.8-.3.1.1.2.2.3.3ZM315.3,164.7c-.3.1-.5.2-.8.3.2-.1.4-.3.6-.4,0,0,0,0,.2,0ZM329.9,150.9c-.3.3-.7.6-1,.8,0,0,0,0-.1,0,.7-.6,1.3-1.2,1.9-1.8-.3.3-.5.6-.8.9ZM342.7,150.6c-1.3,2.3-2.7,4.6-4.1,6.8-.3.4-.5.8-.9,1.3-4.3,3.5-9.1,6.5-14.2,9,.3-.3.7-.7,1-1,2.5-2.6,4.8-5.4,7-8.4,1.1-1.2,2.1-2.4,3.1-3.7.8-1,1.6-2.1,2.4-3.3,1.8-.1,3.8-.3,5.8-.7ZM340.6,142.4l.3.2h0s.2-.2.2-.2c0,.2,0,.4-.2,1,0,0,0,0,0,.1-.1-.3-.2-.7-.3-1.1h0ZM347,131.6c.5-.5,1-1,1.7-1.6-1.6,4.3-3.6,8.3-5.9,12-.3.5-.6.9-1,1.5-.2.2-.3.5-.5.7,0-.2.2-.3.2-.5.3-.8.3-1.3.2-1.6,0,0-.1-.2-.2-.2,0,0-.1,0-.2,0,1.2-2.3,2.2-4.9,3-7.5,1-1.1,1.8-1.9,2.7-2.7ZM345.4,72.6c.7,1.2,1.5,2.3,2.2,3.6,0,.3-.1.5-.2.8-.7-1.2-1.5-2.4-2.3-3.6l.2-.4h0s-.3-.2-.5-.1c-.2-.2-.3-.4-.4-.6.4.1.8.2,1.2.4M344.2,73.6c-.5-.6-.9-1.3-1.3-1.9h.3c0,.1.1.3.1.3.3.4.6.8,1,1.3,0,0,0,.2,0,.3ZM337.9,65.4c-.3-.3-.5-.4-.7-.5l-.3-.3s-.2-.3-.2-.4c.4.4.8.8,1.2,1.3M312.9,43.6c1.5,1,3.1,2,4.7,3.2,0,.1.2.2.2.3-.2-.1-.4-.2-.6-.3-1.8-1.3-3.6-2.5-5.5-3.7.4.2.8.4,1.2.6M306.8,40.1h0s0,0,0,0c.2,0,.3.2.5.2-.2,0-.3-.1-.5-.2ZM306.9,39.3s0,0-.1,0c-.7-.3-1.3-.7-2-1,.7.3,1.5.6,2.2.9ZM306.1,39.7h0c-.5-.2-.9-.5-1.3-.7,0,0-.2-.1-.3-.2.6.3,1.1.5,1.7.8M297.2,35.7s-.2,0-.2,0c0,0,.2,0,.2.1M294.7,34.8c.4.1.7.3,1.1.4h0c-.5-.1-1-.3-1.5-.4-.3-.1-.5-.2-.8-.3.4.1.7.2,1.1.3M279.3,28.5c4.1,0,8.7.8,13.5,2.2,0,.1.1.2.2.3-4-.9-8-1.6-11.8-2-.6-.2-1.3-.3-1.9-.5ZM315.7,29.8c0-.8,0-1.6-.3-2.5,1,1.3,2,2.7,2.8,4.1-.8-.5-1.7-1.1-2.5-1.6ZM383.7,112.3c.2-5.6-.3-12-1.3-18.5,0-.6.1-1.2.2-1.8h.3c.5,0,1,.5,1.6,1.2.6,4.5,1,8.9,1,13,.1,5.3-.2,10.8-1,16.6-.2-2.4-.5-4.9-.9-7.4,0-1.1.1-2.1.2-3ZM371.3,159.8c.6-2,1.1-4,1.5-6.1,1.1-2.1,2.1-4.2,3-6.3.3,0,.5,0,.8,0-.7,2.8-1.6,5.5-2.5,8.1-.2.3-.3.7-.5,1-.4.7-.8,1.3-1.2,2.1-.3.3-.7.7-1.1,1M368.5,167.9c.6-1.5,1.1-2.9,1.6-4.4.8-1.2,1.6-2.5,2.4-3.7-1.2,2.8-2.5,5.5-4,8.2ZM362.1,179.2c-.9,1.6-1.8,3.2-2.8,4.8-1.7,1.7-3.5,3.2-5.3,4.8,1.4-1.5,2.8-3,4.1-4.5,1.4-1.6,2.7-3.3,4-5M311.4,209.2c-2.3.5-4.8.9-7.2,1.2-1.4-.3-2.9-.6-4.3-1,3.2-.7,6.4-1.6,9.4-2.6,4.8-.4,9.5-1.1,14-2.2.9-.2,1.9-.5,2.9-.7-1.4.9-2.9,1.8-4.4,2.6-3.4,1.1-6.9,2-10.3,2.7ZM277.1,212c3,0,6-.1,8.9-.4.3,0,.7,0,1,0-4.5.7-9.1,1.1-13.7,1.2v-.9c1.2,0,2.5,0,3.8,0M276,203.9c4.2,1,8.4,1.8,12.7,2.4-.7.3-1.5.6-2.3.8-2.7.3-5.5.6-8.2.7-1.8,0-3.7,0-5.5,0-.2-1.7-.4-3.2-.6-4.5,1.4.2,2.7.4,4,.6M244.5,192.5c4.3,2.2,8.6,4,12.9,5.6-1.5-.2-3-.4-4.5-.7-.1,0-.2,0-.3,0h-.2c-3.5-1.4-6.9-3-10.2-4.7,0-.2-.2-.4-.2-.6.8.2,1.8.3,2.7.4M242.6,191.5c-.4,0-.7-.1-1-.2,0-.2-.1-.3-.2-.5.4.2.8.4,1.2.7M244.9,187c.6.3,1.2.7,1.8,1-2.4-.8-4.8-1.6-7.1-2.6l-.4-1.2c1.8,1,3.7,1.9,5.6,2.7M239.7,183.8c-.2-.1-.5-.3-.7-.4h0c.2,0,.5.2.7.4ZM241.1,180.9c.8.2,1.7.5,2.6.7,4.8,2.5,9.9,4.7,15,6.5,1.6.7,3.1,1.3,4.6,1.8.8.6,1.5,1.2,2.3,1.8-.6,0-1.1-.1-1.7-.2-6.4-.8-12.9-2.7-18.9-5.2-2.2-1.3-4.5-2.7-6.6-4.2-.2-.8-.5-1.5-.7-2.3l3.3.9h0ZM247,181.8c-3.2-1.8-6.2-3.6-8.7-5.3,4.6,2,9.5,3.7,14.3,4.9l2.5,2c-2.7-.4-5.4-1-8.1-1.6M268.5,183.2c-3.6-.2-7.3-.7-11-1.4-2.3-.9-4.7-1.9-6.9-3,0,0-.1,0-.2,0h-.1c-1.1-1-2.1-1.8-3-2.5,6.8,3.1,13.9,5.4,21.1,6.9M238.9,169.2l-.3.3h0c0,0,.1.2.2.3-2.2-1-4.4-2.1-6.5-3.2v-.2c0,0-.2-.2-.2-.3-.3-.5-.7-1.1-1.2-1.7,2.6,1.7,5.2,3.3,7.9,4.8M240.7,170.6c-.5-.4-.9-.8-1.2-1.1,2.2,1.2,4.4,2.2,6.6,3.2-1.8-.7-3.6-1.3-5.4-2.1ZM240.3,171.1c.8.7,1.6,1.4,2.6,2.2-2.6-1.3-5.4-3-8.1-4.8,1.8.9,3.7,1.8,5.5,2.6ZM299.8,171.9c-.9.4-1.6.8-2.3,1.2-2.8,1.4-4,2-9.1,3.3-1.2-.4-2.5-.8-3.9-1.2.3-.3.5-.6.8-.8,2.5-.2,4.9-.6,7.3-1,2.4-.4,4.9-.9,7.3-1.5M350.2,116h0c0,.7,0,1.2,0,1.8h-.4c.1-.6.2-1.2.3-1.8M344.8,75.7c.7,1,1.4,2.2,2.1,3.3,0,.3-.2.7-.3,1-.6-1.2-1.2-2.5-1.8-3.9v-.4M341.7,71.3c.1.3.3.5.4.7-.2-.3-.3-.5-.5-.8h0M330.3,48.9h0c0,0,.2-.2.2-.2,0,0,.2.1.2.2h.2c1,1.2,2.1,2.3,3.1,3.4.8,1.5,1.6,3.1,2.4,4.7-2.9-3.3-6.1-6.4-9.6-9.4-.2-.5-.4-1-.6-1.5,1.3.9,2.7,1.8,4,2.8M324.1,48.5c-2.7-2.6-5.6-5-8.6-7.2-.2-.6-.4-1.2-.6-1.7,4,2.5,7.9,5.4,11.4,8.4.4,1.1.7,2.1.9,3-1-.8-2.1-1.7-3.2-2.4M318.4,46.4c.6.3,1.2.7,2,1.2.5.5.9.9,1.4,1.4-1.1-.9-2.2-1.7-3.4-2.6ZM307.6,39.6c2.8,1.3,5.7,2.8,8.4,4.4.1.2.2.4.3.6-1-.5-2.1-1.1-3.1-1.6-1.8-1.2-3.8-2.3-5.8-3.3,0,0,.1,0,.2-.1M293.6,32s.2.3.3.4c-1.3-.2-2.6-.3-3.9-.5-1.3-.5-2.7-1-4-1.4,2.6.4,5.2.9,7.7,1.5M299.2,31.5c1.3.8,2.7,1.5,3.9,2.3-.2,0-.3-.1-.5-.2-.4-.2-.8-.4-1.3-.6-2.7-1.2-5.4-2.2-8.2-3-.2-.4-.5-.8-.8-1.2,2.3.8,4.6,1.7,6.8,2.6ZM312.1,37.2c.6.2,1.2.4,1.8.6,0,.2,0,.3,0,.5-.2,0-.3-.2-.4-.2-.5-.3-1-.6-1.5-.9M313.8,37.1c-.6-.2-1.2-.4-1.8-.6.7-.4,1.3-.8,1.9-1.1-.1.6-.2,1.2-.1,1.7ZM322.9,40.5c-.4-.2-.8-.3-1.2-.5-2.2-1.7-4.6-3.4-7-5,.3-.2.7-.3,1-.5,2.2,1.3,4.3,2.7,6.4,4.2.2.5.5,1.1.8,1.8ZM316.9,33.4c-.4.2-.8.3-1.2.4h0s-.3-.3-.5-.3c0-.2.2-.5.2-.7.5.2,1,.4,1.6.7ZM328.4,32.8s.1.1.2.2c-2-.4-3.8-.6-5.5-.6s-2.1,0-3,.2c-.1,0-.2-.2-.3-.2l-.2-.2c-1.1-1.9-2.3-3.6-3.6-5.3-.9-1.1-1.8-2.2-2.8-3.2,5.1,2.4,10.3,5.5,15.4,9.1ZM342.9,36.6c0,.2,0,.5.2.8v.5c.3.5.4,1.1.6,1.7-.2-.2-.3-.5-.5-.7-3-4.2-7.1-8.5-12.1-12.8h.4c1.4,1,2.8,2,4.2,3l.2.2s.3.3.5.5c2.3,2.2,4.5,4.5,6.5,6.9ZM356.2,44.8c1.7,2.2,3.2,4.5,4.7,6.8-.1,0-.2.1-.3.2-.4.3-.8.6-1.1,1-3.1-4.4-6.6-8.7-10.4-12.6-.2-.7-.4-1.3-.7-1.9-.5-1.4-1-2.9-1.4-4.4,3.3,3.4,6.4,7,9.2,10.8ZM367.6,58.9c-.2-.3-.3-.5-.4-.7-.7-2.1-1.4-4.1-2.1-6,.2,0,.4.1.6.2.3.5.7,1,1,1.5,1,2.8,2.1,5.9,3.3,9.7-.8-1.6-1.6-3.2-2.4-4.7ZM381.8,128.2c.7-3.3,1.1-6.6,1.4-9.9.2,1.5.3,3.1.5,4.6,0,.5,0,.9,0,1.4-.7,1.4-1.3,2.7-2,4ZM377.6,146.6c.7-2.6,1.2-5.4,1.6-8,.9-2.7,1.6-5.5,2.2-8.2.8-1.5,1.7-3,2.5-4.7v.2c-1.2,7.1-3.1,14.2-5.5,20.4-.3.2-.6.3-.8.3M360.5,175.5c2.6-2.7,5-5.7,7.3-8.7-.9,2.4-1.9,4.9-3.1,7.3-1.3.6-2.8,1.1-4.2,1.4M330.1,199.8c-1.6,0-3,0-4.4-.3,2-1.1,3.9-2.3,5.8-3.5,3.3-1.5,6.5-3.1,9.5-4.9.6-.4,1.2-.7,1.9-1.2-3.3,3.5-6.9,6.9-10.7,9.8-.7,0-1.3,0-2,0M279.2,201.1c1.3.8,2.5,1.5,3.7,2.2-3.7-.3-7.5-.9-11.2-1.7v-.4c2.5,0,5,0,7.5,0M260,198.9c.6.2,1.2.4,1.8.6-1.8-.3-3.7-.6-5.5-1,1.3.2,2.5.3,3.8.4ZM240.4,186.9c2.7,1.9,5.4,3.7,8.2,5.4-1.3-.1-2.6-.3-3.9-.5-1.2-.6-2.3-1.2-3.5-1.8-.3-1-.7-2-1.1-3.2.1,0,.2.1.3.2ZM276.4,183.3h-.7c-.8,0-1.7,0-2.6,0h-.4c-9.5-1.6-18.7-4.5-27.4-8.7-1.2-1-2.2-1.9-3.2-2.7,3.7,1.5,7.5,2.7,11.5,3.8.3,0,.6.2.9.2h.2c0,0,.2.2.4.2,5.6,1.8,11.5,3,17.4,3.6,2,.3,4,.7,6,.9-.8.9-1.5,1.8-2.2,2.7M298,175.6c-1.8.3-3.7.5-5.5.6-.4,0-.8,0-1.2,0,3.1-.9,4.4-1.5,6.6-2.7,1.3-.7,2.9-1.5,5.5-2.7,1.1-.3,2.2-.7,3.2-1-3.3,2.4-6,4.1-8.5,5.6M316.9,165.7c.8.7,1.6,1.6,2.2,2.8-.4.3-.8.6-1.3.9-1-.2-1.8-.5-2.5-.8-.6-.4-1.2-.9-1.7-1.3,1.1-.5,2.2-1,3.2-1.5M319.7,168.1c-.6-1.1-1.3-2-2.2-2.7,4.9-2.5,9.4-5.5,13.4-9,.7-.5,1.4-1.1,2.2-1.7-.7,1.1-1.5,2.2-2.2,3.2-3.3,3.8-7.1,7.2-11.2,10.2ZM341.4,146.5c.6,1,1.2,2,2,2.8h0c0,.1-.2.4-.3.6-1.9.4-3.8.7-5.5.8,1.3-1.3,2.6-2.7,3.8-4.1ZM349.5,130.3h0c-.4,1-.8,1.8-1.2,2.7.5-1.2,1-2.4,1.4-3.6,0,.3-.1.7-.2,1M344.3,70.9c.2.3.4.6.6.9-.4-.2-.9-.3-1.3-.4-.3-.4-.7-.8-1-1.3.5.2,1.1.5,1.7.8M342.5,70.9s-.2,0-.3-.1c-.2-.3-.3-.7-.5-1,.3.3.5.7.8,1.1ZM303,34.7c.3.1.6.2.9.3,1.5.7,3,1.5,4.4,2.4h0c.2.2.4.3.6.5-.4.3-.9.7-1.3,1-3.7-1.7-7.6-3.2-11.5-4.4-.3-.4-.6-.8-.9-1.3,2.6.4,5.2.9,7.8,1.5M294.5,32.3c.8.2,1.6.4,2.5.7-.7-.1-1.5-.2-2.3-.3,0,0-.1-.2-.2-.3M296.2,31.8s-.2,0-.3,0c-.7-.2-1.3-.3-2.1-.5,0,0-.1-.2-.2-.2.8.3,1.7.5,2.5.8M305.5,34.7c-.5-.4-1.1-.7-1.7-1.1.9.4,1.8.9,2.8,1.4-.4-.1-.8-.2-1.2-.3M314.6,38c2.3.8,4.6,1.7,6.8,2.5.9.7,1.8,1.4,2.6,2.1.2.5.5.9.7,1.4-3.2-2-6.6-3.8-10-5.5,0-.2,0-.4-.1-.6M319.1,45.1c-.5-.3-.9-.6-1.4-.8-.5-.4-1-.9-1.5-1.3,0-.1-.1-.2-.2-.3,1,.8,2.1,1.6,3.1,2.4h0ZM317.3,44.7c.3.3.7.6,1,1-.3-.2-.6-.3-.9-.5-.1-.2-.2-.3-.3-.6,0,0,.1,0,.2.1ZM308.3,39.2c.4-.3.8-.6,1.2-.8,1.8,1.3,3.5,2.7,5.2,4.2-2.1-1.2-4.3-2.3-6.5-3.3M309.6,37.4c-.3-.2-.6-.3-.9-.5h0s0,0,0-.1c.4.2.8.3,1.2.5h-.2c0,.1,0,.2,0,.2ZM314.5,41.5s.3.2.5.3h0c-.2,0-.3-.2-.5-.3M310.2,37.8l.3-.2c1.2.5,2.5,1.1,3.7,1.7.1.5.3,1,.4,1.4-1.4-1-2.9-2-4.4-2.9M319,32.7h0c-.3.2-.8.3-1.2.4-.8-.3-1.6-.7-2.4-1,.1-.5.2-1,.2-1.5,1.1.7,2.2,1.4,3.3,2.2M344.8,43.9c.3,1,.6,2.1.9,3.2-4.6-4.9-9.6-9.4-15.1-13.5h0v-.2h0c-1.2-2.7-2.5-5.9-.8-6.9h.2c.2-.2.3-.2.4-.3,5.1,4.3,9.2,8.7,12.3,13,.5.7,1,1.5,1.5,2.2.2.8.5,1.7.7,2.5M343.6,36.4h0c0,0-.5-.5-.5-.5h0c-.6-.6-1.2-1.3-1.8-2,3,3,5.6,5.7,7.7,8.3.2.7.4,1.3.6,2-1.9-2.7-3.9-5.2-6.1-7.8ZM369.6,162.1s.3-.2.4-.3c0,.2,0,.3-.1.4h-.3ZM311.7,205.9c3.3-1.2,6.6-2.6,9.7-4.1,1.1-.5,2.2-1.1,3.3-1.7,1.7.3,3.4.5,5.4.4.3,0,.7,0,1.1,0-1.1.8-2.2,1.6-3.2,2.3-1.7.5-3.3.9-4.9,1.3-3.7.8-7.5,1.5-11.4,1.9ZM278.3,208.5c1.8,0,3.7-.2,5.5-.4-2.1.7-4.2,1.3-6.3,1.9-1.5-.2-3.1-.5-4.6-.8v-.7c1.8,0,3.7,0,5.4,0ZM265.5,200.6h.3c1.5.7,3,1.2,4.4,1.6.3,0,.6.2.9.3-3.8-.7-7.7-1.6-11.4-2.7,2,.3,3.9.6,5.8.8M246.5,188.7c-.4-.2-.8-.3-1.2-.4,1.4.5,2.8.9,4.3,1.3.4.2.7.4,1.1.5-1.4-.4-2.8-.9-4.2-1.4ZM248.3,183.2l-.3-.2s0,0,.2,0,.1,0,.2,0M249.6,183c2.2.5,4.4.8,6.5,1.2.7.6,1.4,1.1,2.1,1.7-2.9-.8-5.7-1.8-8.5-2.8ZM272.7,184c.2,0,.5,0,.7.1-1.8.3-3.7.4-5.9.4h-2c-.3,0-.5-.1-.7-.2-1.3-.4-2.5-.8-3.8-1.2,4,.6,7.9.9,11.7.9ZM287.9,180.5c-.2,0-.5.2-.7.3-2.4-.1-4.9-.3-7.3-.6h4.2c1.3.2,2.6.3,3.8.4M288.2,177.1h.3c1.4.5,2.7,1,3.9,1.5-.2.1-.5.2-.7.3-2.5.3-5,.5-7.6.5-1-.1-2.2-.3-3.3-.4.2-.2.5-.5.7-.7,1.9-.2,3.7-.5,5.4-.9.4-.1.8-.2,1.2-.3M307,175.7c-4.2,1.3-8.7,2.3-13.1,2.9h0c1.4-.7,2.8-1.5,4.3-2.3,4.8-.7,9.5-1.8,14.1-3.3-1.7,1-3.5,1.9-5.2,2.7ZM321.8,168.5c-.5.3-1,.5-1.5.7,0-.2-.2-.4-.3-.5,2.5-1.8,4.9-3.8,7.2-6-1,1.2-2.1,2.5-3.2,3.6-.7.7-1.5,1.5-2.2,2.3ZM350.3,101.9v-.4.4ZM348.6,81.7c1.6,2.7,3.1,5.5,4.5,8.3-.7.1-1.5,0-2.3,0,0,0-.2,0-.2,0-.9-2.8-2-5.7-3.5-8.9.1-.4.2-.8.3-1.2.4.7.8,1.3,1.2,2M346.4,72.1h0c-.2,0-.4,0-.6,0-.1-.2-.2-.3-.3-.5.3.2.6.3.8.5M341.6,67.1c.7.9,1.3,1.8,1.9,2.7-.6-.3-1.1-.5-1.6-.7.1-.2.1-.7-.3-2M339.2,63.9c.4.5.8,1,1.2,1.5.7,1.8,1,2.7,1,3-.4-.5-.8-1-1.2-1.4-.6-1.2-1.3-2.4-1.8-3.4.3.1.5.2.8.3M338.2,57.2c0,.6,0,1.2,0,1.7s0,.2,0,.2c-.2-.5-.5-1-.7-1.4-.5-1.1-1.1-2.2-1.7-3.3.8.9,1.6,1.9,2.3,2.8M328,46.2c-.8-.5-1.6-1-2.3-1.5-.2-.3-.3-.6-.5-1,1,.8,1.9,1.7,2.8,2.5M333.9,41.7c-2.4-1.6-4.9-3-7.3-4.4-.2,0-.3-.2-.5-.3h-.1c-.5-.4-.9-.8-1.4-1.2-1.2-.9-2.5-1.8-3.8-2.8.7,0,1.5-.1,2.3-.1,2,0,4.2.3,6.5.8.2.2.4.3.6.5.5,1,1,2,1.5,2.9.8,1.6,1.6,3.1,2.1,4.4h0ZM356.5,51.8c.7,1,1.3,2.1,2,3.1,0,.2-.1.4-.2.6-.5-1.2-1.1-2.5-1.8-3.7ZM359.9,53.4c.3-.5.7-.8,1.1-1.1.1,0,.2-.1.3-.2.4.6.7,1.2,1.1,1.7.5,1.8.9,3.5,1.2,5.3-1.2-2-2.4-3.9-3.7-5.8M369.8,66.5c-.5-1.7-1-3.3-1.5-4.9,1.3,2.5,2.5,5.2,3.6,7.7l.2.7c1.2,3.5,2.1,7,2.8,10.5-1.4-4.7-3.2-9.4-5.2-13.9M380,92.5c-.2.2-.5.3-.7.4-1.3-8.2-3.5-16.1-6.7-23.8-1.7-5.4-3.1-9.4-4.3-12.8.2.2.3.5.5.7,7.5,12.3,11,25.6,12.6,34.6-.5.2-.9.5-1.3.8M380.4,102.6c-.1-1.7-.2-3.3-.4-4.8-.2-1.3-.3-2.7-.5-4.1.3-.2.7-.4.9-.6.4-.3.7-.5,1.1-.7,0,.5.2,1,.3,1.5-.3,2.9-.7,5.8-1.3,8.7M356.3,176c1.6-1.7,3.3-3.6,5.1-5.7,1.4-1.7,2.8-3.4,4.2-5.2,1.2-.8,2.4-1.8,3.6-2.7-.2.8-.5,1.5-.7,2.3-2.8,3.9-5.8,7.6-9.2,11-1,.2-2,.3-3.1.3M344.2,188.2c.3-.8.6-1.7.9-2.5.8-.5,1.5-1,2.3-1.5.3-.2.5-.4.8-.6-1.2,1.6-2.4,3.1-3.7,4.6,0,0-.2.1-.3.2v-.2h0ZM334.6,193.8c3-2.2,5.8-4.5,8.4-6.9.3-.2.7-.4,1.1-.7-.2.6-.4,1.2-.6,1.8l-.3.9c-.9.6-1.8,1.1-2.7,1.7-1.9,1.2-3.9,2.2-6,3.2ZM285.6,204.6c.6.3,1.2.6,1.8.9-2.2-.3-4.4-.7-6.5-1.1,1.5.1,3.1.2,4.7.2M275.7,198.9c.8.5,1.7,1.1,2.5,1.6-2.2,0-4.4,0-6.7,0,0-.4-.2-.8-.2-1.3,1.5,0,2.9-.2,4.4-.3M259.4,186.9c.6.5,1.2,1,1.8,1.4-.7-.2-1.5-.5-2.2-.7-1.8-.7-3.6-1.5-5.4-2.4,1.9.6,3.8,1.2,5.9,1.7M272.8,188.7c-1.4-.2-2.7-.3-4-.5-3-.5-6.1-1.1-9.1-1.9-.8-.7-1.6-1.3-2.4-1.9,2.8.4,5.4.6,7.9.7,2.8.8,5.6,1.5,8.5,2.1-.3.5-.6,1-.9,1.5M296.5,176.4c-1.2.7-2.3,1.2-3.4,1.8-.9-.4-1.9-.8-3-1.2.8,0,1.6,0,2.3-.2,1.3-.1,2.7-.2,4-.4M317.9,170.9c.2.1.5.2.7.3-2.5,1.2-5,2.2-7.5,3.1,1.4-.8,2.8-1.6,4.2-2.4.9-.3,1.8-.7,2.7-1M321.1,170c.3-.3.7-.6,1-1,2.4-1.1,4.8-2.4,7.1-3.7-2.6,1.7-5.3,3.3-8,4.7h0ZM344,150.3s.3,0,.4,0c.3.2.6.5.9.7-1.2,1.4-2.3,2.8-3.6,4.1.7-1.4,1.4-2.8,2.1-4.3l.2-.4h0ZM352,128.8l.3-.3s.3-.3.5-.5c0,.5,0,.9,0,1.4-.4,4.9-1.3,9.8-2.7,14.6v.3c-1.1,1.6-2.2,3.2-3.3,4.6-.8.2-1.5.4-2.3.6,0,0-.1-.1-.2-.2.6-1.4,1.2-2.9,1.8-4.4,1.7-3.9,3-8,4.1-12,.6-1.3,1.2-2.7,1.8-4M340.6,63.2s0,0-.1,0c-.3-.3-.6-.6-.9-.9-.1-.2-.2-.5-.3-.7.5.6.9,1.2,1.3,1.7M328.9,44l.2.2c.2.2.5.4.7.6.8,1.3,1.7,2.8,2.7,4.5-.3-.3-.7-.5-1-.8-.7-.7-1.4-1.4-2.1-2-1.5-1.4-3.1-2.8-4.8-4.2,0-.2-.2-.3-.2-.4,1.5.7,3.1,1.4,4.6,2.2ZM326.6,42.2c-.9-.5-1.9-.9-2.8-1.3-.2-.4-.5-.9-.7-1.4,1.2.8,2.3,1.8,3.5,2.7ZM316.4,34.3c.5-.2,1-.3,1.4-.5.8.3,1.6.7,2.3,1,.5,1,.9,1.9,1.3,2.8-1.7-1.2-3.4-2.3-5.1-3.3M320.6,34.3c-.2-.3-.3-.5-.4-.8.9.6,1.8,1.2,2.6,1.9-.7-.3-1.5-.7-2.2-1ZM357.8,58.6c-1.7-4-4-8.4-7-12.7-.2-.8-.4-1.5-.7-2.3.9,1.2,1.7,2.2,2.4,3.2,2.4,3.5,4.2,6.8,5.5,9.9-.1.6-.2,1.2-.3,1.9ZM363.9,61c.2,1,.3,2,.4,3-1.5-3.1-3.3-6.2-5.2-9.2.1-.3.2-.5.3-.8,1.5,2.3,3,4.6,4.4,7M380,131.4c.1-1.4.2-2.8.2-4.2,0-2.8,0-5.8-.1-8.6.4-4.4.6-9,.4-13.4,1,3.4,1.8,6.9,2.3,10.2-.3,5-1,9.9-2.1,14.7-.3.5-.5.9-.8,1.3M375.5,146.7c-.4-.2-.9-.3-1.3-.6.2-1.2.3-2.3.4-3.5.6-1.5,1.2-3.1,1.7-4.7.6-.7,1.2-1.5,1.7-2.2.4-.5.8-1.1,1.2-1.7-.2,1.5-.3,3-.6,4.4-.6,1.8-1.2,3.5-1.8,5.1-.4,1-.8,2.1-1.3,3.2M375.2,147.2c-.6,1.4-1.2,2.8-1.9,4.1.3-1.5.5-3.1.7-4.6.4.2.8.4,1.2.5ZM362,166.6c4.4-6.3,8.1-13.2,11-20.4.1,0,.3.2.4.3-.3,2.3-.7,4.7-1.2,7.1-2.1,3.9-4.4,7.7-7,11.2-1,.7-2.1,1.3-3.1,2M358.6,176.5c-3.8,3.8-7.9,7.3-12.2,10.3,1.3-1.5,2.5-3.2,3.6-4.8,1.7-1.5,3.6-3.3,5.6-5.4,1,0,2,0,3-.2M323.6,199.1c1.4-.5,2.8-1,4.3-1.6-1,.6-2.1,1.2-3.2,1.8-.4,0-.7-.2-1.1-.3M319.6,200.3c1-.3,1.9-.6,2.8-.9.4.2.9.3,1.3.4-.9.5-1.8.9-2.7,1.3-3.8,1.9-7.9,3.6-12,5-.3,0-.6,0-.9,0,4-1.7,7.8-3.7,11.4-5.9M292.2,206.9c.2,0,.4,0,.7-.2,2.8.2,5.7.3,8.6.3s2,0,3,0c-1.9.7-3.9,1.4-5.9,2-2.1-.6-4.2-1.3-6.3-2.2M289.5,206.7s.2,0,.3-.2c0,0,0,0,.1,0-.2,0-.3,0-.5,0M293.4,204.4c-1.1.5-2.3,1-3.4,1.4h-.4c-.8-.4-1.7-.8-2.5-1.2,2.1,0,4.2,0,6.3-.2ZM290,199.9c2,0,4,0,6,0,3-.2,6-.5,9.1-1-3.3,1.7-6.6,3.3-9.7,4.7-.9,0-1.6,0-2.2,0-2.8,0-5.7,0-8.6-.3-1.3-.7-2.7-1.5-4.2-2.3,3.2-.2,6.4-.5,9.6-1.1M270.7,199.2c0,.4.2.8.2,1.2-1.7,0-3.4-.2-5.1-.4-.7-.3-1.5-.6-2.2-.8,2.4.1,4.7.1,7,0M261.1,192.6c-2.2-.4-4.3-.9-6.5-1.4-.7-.3-1.3-.6-1.9-.9,3.7.9,7.5,1.5,11.3,1.9h.2c.2,0,.4,0,.6.1-1.2.1-2.5.2-3.7.3M268.7,188.8c1.2.2,2.5.3,3.8.5-.3.6-.5,1.2-.8,1.7-2.9-.6-5.9-1.3-8.8-2.2-.7-.5-1.3-1-2-1.6,2.6.6,5.2,1.2,7.8,1.5M290.1,181.5c-2.3.5-4.6.9-6.9,1.2,1.4-.4,2.7-.8,4.1-1.3.9,0,1.9,0,2.8,0M289.7,179.7s-.3.1-.4.2c-.3,0-.6,0-.9,0,.4,0,.9,0,1.3-.1ZM317.3,172.6c-.3.3-.6.5-.9.7-2.5,1.4-5,2.2-6.4,2.4h-.1c-2.2,1.5-4.6,2.8-6.9,4.1-1.7.2-3.5.2-5.3.3,3.3-1,6.5-2.3,9.5-3.8,1.2-.4,2.4-.8,3.5-1.2,2.2-.8,4.4-1.6,6.5-2.6M327.1,170.8l-1.2-.2c-1.2-.2-2.5-.3-3.7-.5,4.9-2.6,9.5-5.5,13.6-8.9-2.6,3.4-5.5,6.6-8.7,9.6ZM328,171c3.7-3.5,7-7.4,10-11.5.3-.3.7-.6,1-.9-2.7,4.5-5.8,8.8-9.2,12.7-.5,0-1.1-.2-1.7-.2ZM352,126.9c-.2.5-.3,1-.5,1.4v.2c0,0-.3.2-.3.3.2-.6.4-1.2.7-1.7,0,0,.2-.2.3-.2M350.6,95.9s0-.2.1-.3h0c.2-.4.3-.7.5-1.1.3,1.2.5,2.3.7,3.3.3,2.2.6,4.5.7,6.8-.2,0-.4.2-.5.3-.4-2-.8-4-1.3-5.9,0-.6-.1-1.2-.2-1.8,0-.4,0-.9,0-1.3ZM352.3,85.7c.2.6.4,1.2.6,1.8-1.5-3.3-3.2-6.6-5-9.7,0-.3.1-.5.2-.8,1.6,2.8,3,5.7,4.3,8.7ZM341.1,64.7c.5.6,1,1.2,1.5,1.8.4.5.8.9,1.2,1.4.7,1,1.3,2.1,1.9,3.2-.3-.2-.7-.4-1-.6-1.2-1.8-2.5-3.7-3.9-5.4,0-.2-.2-.3-.2-.5.2,0,.3.1.5.2M325.7,37.6c3.6,2.8,7,5.9,10.1,9.2,0,.2.1.3.2.4-2-1.2-4-2.3-6-3.3-.4-.6-.7-1.2-1.1-1.6h0c0,0-.5.3-.5.3h0c0,0,.2.3.2.4-2-1.6-4-3.2-6-4.6,0-.2-.2-.4-.2-.6-.4-.8-.8-1.7-1.2-2.5,1.5.7,3.1,1.5,4.6,2.3M364.6,66.5c.2,2,.2,4,.1,6,0-.1-.2-.2-.2-.3-.9-1.4-1.9-2.8-2.8-4.1v-.7c-.7-3.5-1.3-6.9-2.8-10.9,0-.3.1-.6.2-.9,2,3.4,3.9,7,5.7,10.8M378.2,93.4s-.1,0-.2,0c-.3-1.9-.7-3.8-1.1-5.7-.4-3.2-1-6.6-1.8-10,1.6,5,2.8,10.2,3.7,15.4-.2,0-.3.1-.5.2M378.6,97.6c-.2-1.2-.3-2.4-.5-3.5,0,0,.2,0,.2,0,.2,0,.3,0,.4-.1.2,1.3.4,2.6.5,3.9,0,.7.2,1.5.2,2.2-.3-.8-.6-1.6-.9-2.4M379.8,132.8c.2-.2.3-.5.4-.7-.2.8-.4,1.6-.6,2.3,0-.5.1-1.1.2-1.7M373.6,144.7c0,.3,0,.7-.1,1,0,0-.2-.1-.2-.2.1-.3.2-.6.4-.9M345.4,184.7c.5-.5,1.1-1.1,1.6-1.6.6-.5,1.2-1,1.8-1.5.7-.6,1.4-1.2,2.1-1.9-.4.7-.9,1.3-1.3,2-.9.8-1.8,1.4-2.5,2-.5.4-1,.7-1.5,1.1M322.5,198.8s-.2,0-.3,0c1-.7,2.1-1.4,3.1-2.2,4.9-2.2,9.6-4.8,14-7.7.4-.2.9-.4,1.3-.6-3,2.6-6.2,5-9.5,7.2-2.8,1.2-5.7,2.3-8.6,3.3ZM258.2,193.4c4,1.6,8.2,2.9,12.3,3.9,0,.4,0,.8.1,1.3-2.8.1-5.8,0-8.7-.1-3.5-1.5-7-3.3-10.5-5.2,2.3.2,4.6.2,6.8.2M272.4,191.2c.2-.6.5-1.2.8-1.8,1.8.2,3.6.3,5.4.4-2,.5-4.1,1-6.1,1.4h0M275.5,184.4c-.4.5-.8,1.1-1.1,1.6-1.9-.2-3.8-.5-5.7-.9,2,0,3.9-.2,5.6-.5.4,0,.8-.2,1.3-.2ZM290,185.3h1.7c-1.2.5-2.4,1-3.6,1.5-4.3.1-8.7-.1-12.9-.6.3-.5.7-1.1,1.2-1.6,4.5.6,9.2.9,13.7.8M297.5,181.4c.3.2.7.5,1,.7-1.7.8-3.5,1.7-5.3,2.5-1.2,0-2.3,0-3.3,0-4.1,0-8.2-.2-12.4-.7.4,0,.8-.2,1.2-.3,4.8-.3,9.5-1.1,14.1-2.3,1.5,0,3.1,0,4.7-.2M293.2,180.7s-.3,0-.5.1c-1.3,0-2.6,0-3.9,0,.2,0,.4-.2.6-.2,1.3,0,2.5.2,3.8.2ZM290.8,180c.3-.2.7-.3,1.1-.5.6,0,1.2-.2,2-.3.6.3,1.1.5,1.6.8h0c-1.5,0-3.1,0-4.6-.1ZM319.6,169.5s-.3.1-.5.2c-.2,0-.3,0-.5,0,.3-.2.5-.4.8-.6,0,.2.1.3.2.4h0,0ZM319.1,170.4s0,0,.2,0c.2,0,.3,0,.5,0,0,0-.1,0-.2.2l-.5-.2h0ZM346.4,151.4s.3.2.5.2c-3,6-6.8,11.5-11.2,16.4-.4.4-.8.8-1.2,1.3-.4.2-.8.4-1.2.7l-.9.4c-.5.2-1.2.5-1.8.8h-.1c3.8-4.4,7.2-9.1,10-14.2,2.1-1.8,4-3.7,5.8-5.7M351.4,118.3s.2.3.3.4h0v.5c-.1.7-.3,1.4-.4,2.1,0-1,.1-2,.2-3ZM351.4,117.1v-1.1c0,.5.2,1,.2,1.5,0,0-.2-.3-.2-.4ZM351,106.1h0c.3,2.5.5,5,.6,7.5-.1-.7-.2-1.4-.4-2.2,0-1.4-.2-2.8-.3-4.2v-1M350.9,93.4c0,.3-.2.5-.3.7v-1.7c0,.3.2.6.2.9M338.9,58.9v-.8c1.7,2.2,3.2,4.4,4.7,6.7-.4-.1-.8-.2-1.3-.4-1.2-1.7-2.4-3.3-3.7-4.9.2-.2.3-.4.3-.7ZM334.8,42.3c-.1-.3-.2-.6-.4-.9-.5-1.3-1.3-2.8-2.2-4.4-.2-.5-.5-1-.7-1.4,4.9,4.4,9.4,9.4,13.4,14.6-3.2-2.8-6.7-5.4-10.2-7.8M335,37.9c4,3.3,7.7,6.9,11.1,10.5.3,1.2.6,2.2.8,3.2-3.6-4.9-7.5-9.5-11.9-13.7ZM359,64.7c-.3-.5-.6-.9-.9-1.4v-.2c0-.5,0-1.1,0-1.6.1.3.2.6.3.9.3.9.5,1.7.7,2.7,0-.1-.2-.2-.3-.3M360.2,66.3c-.3-1.3-.7-2.7-1.1-4.1-.2-.7-.5-1.5-.8-2.3,0-.7.1-1.4.2-2,1.2,3.3,1.7,6.3,2.2,9.1-.2-.2-.3-.5-.5-.7M365.4,62.2c-.2-.3-.4-.7-.6-1,0-.4-.2-.8-.2-1.2.2.7.5,1.4.8,2.3M370.7,73.3c-1-2.4-2.1-4.8-3.2-7.2l-.7-1.9c-.7-2-1.3-3.7-1.8-5.1-.2-.5-.3-1-.5-1.5,1.7,3,3.3,6.2,4.7,9.3.7,2.5,1.3,5,2,7.8-.2-.5-.4-.9-.5-1.4M355.2,176h-.8c2.4-2.5,4.7-5.3,6.7-8.2,1-.5,1.9-1.1,2.8-1.7-1,1.3-2,2.5-3.1,3.8-2,2.3-3.8,4.3-5.5,6.1h-.2ZM353.8,176.6h.9c-1.2,1.2-2.3,2.3-3.3,3.2.5-.8,1-1.5,1.4-2.3.3-.3.7-.7,1-1M333.3,189.9c.5-.5,1-1,1.5-1.5.2-.2.3-.3.5-.5h.1c1.4-.9,2.8-1.8,4.2-2.7,2.3-1.5,4.5-3.2,6.6-4.9-.4,1.2-.8,2.3-1.2,3.5-1.9,1.5-3.9,3-6,4.4-2.1.9-4,1.5-5.7,1.7M301.9,204.3c.8-.3,1.5-.5,2.3-.8,4.4-.5,8.8-1.4,13.1-2.5-3.5,2-7.2,3.8-11,5.3-1.6,0-3.2.1-4.8.1s-4.2,0-6.4-.2c2.4-.5,4.7-1.2,6.9-1.9ZM293.1,195.4c4.8,0,9.6-.2,14.4-.9-2.1.8-4.2,1.5-6.4,2.2-3.7,1.1-7.4,2-11.2,2.6-3.4,0-6.9-.4-10.3-.8,4.6-.7,9.1-1.7,13.5-3M271.4,194.6c3.1.2,6.2.2,9.2,0,.4,0,.7,0,1.1,0,3.1.4,6.2.7,9.4.8-4.5,1.3-9,2.2-13.7,2.7-.8-.1-1.5-.3-2.3-.4-1.2-.8-2.5-1.7-3.8-2.6,0-.2,0-.3,0-.5ZM274.8,198.3h0c-1.2.2-2.4.2-3.6.3,0-.3,0-.7-.1-1.1,1.2.3,2.4.5,3.6.8M263.7,193.1c1.1-.1,2.2-.2,3.3-.3.4.3.8.6,1.2.9-1.5-.2-3-.3-4.5-.6ZM270.7,194.5v.2c0,0-.2-.1-.2-.2h.3M270.9,193.9c-.5,0-.9,0-1.4-.1-.5-.3-1-.7-1.5-1.1,1,0,2.1.2,3.2.2-.1.3-.2.7-.3,1M259.9,193.4c.3,0,.7,0,1,0h.2c2.7.5,5.5.8,8.2,1.1.5.3.9.7,1.3,1,0,.4,0,.8,0,1.3-3.6-.9-7.2-2-10.6-3.3M271.2,196.8c0-.3,0-.7,0-1,.7.5,1.5,1,2.2,1.5-.7-.2-1.5-.3-2.2-.5ZM272.1,192.1s0,0,0-.2h.3c0,0,.2,0,.2,0,.3,0,.6.2.9.2h-1.4M282.9,188.5c-.8.2-1.5.5-2.3.7-2.3,0-4.7-.2-7.1-.5.3-.5.5-1,.8-1.5,2.8.5,5.7,1,8.5,1.2ZM320.8,172.3c.3.9.6,2,.8,3.3-.2.2-.5.3-.7.5-3.1,1.1-6.3,1.9-9.5,2.5-2.2.4-4.5.8-6.8,1,1.9-1,3.7-2.2,5.6-3.3,1.5-.3,4.1-1.1,6.6-2.5.8-.7,1.7-1.4,2.5-2.2.5.2.9.4,1.4.7M325.5,172.3c-1.5-.3-3-.7-4.5-1.2,0,0,0-.2,0-.3h.3c1.5.1,3.2.3,4.7.5h.7c-.3.3-.6.7-1,1M352.6,125.4s0,0,0,.1c0,0-.2.2-.3.3.1-.3.2-.6.3-.9,0,.2,0,.3,0,.5ZM352,122.3c0-.3,0-.7,0-1,0,.2,0,.3,0,.4,0,.2,0,.4-.2.6M346.6,69.9c.3.5.5.9.7,1.4-.7-1-1.5-2-2.3-3,.5.5,1,1.1,1.5,1.6ZM348.1,64.7s.3.4.4.6h0c-1,.2-2.4.1-3.9-.2-1.7-2.8-3.6-5.5-5.7-8.1,0-.6-.1-1.2-.2-1.8,3.4,3,6.6,6.2,9.5,9.5M335.5,49.9c.6.6,1.2,1.2,1.8,1.8.2.6.3,1.2.4,1.8-1.3-1.1-2.6-2.2-3.9-3.2-.8-1.5-1.6-2.9-2.3-4.1,1.4,1.2,2.8,2.5,4.1,3.7M335.3,45.3c-2-2.1-4.2-4.1-6.5-6,1.8,1.1,3.7,2.2,5.5,3.5.3.8.7,1.7,1,2.5ZM357.7,60c0,.7-.1,1.5-.2,2.4-1.2-1.8-2.4-3.7-3.7-5.5-.4-.8-.8-1.6-1.2-2.3-.2-2-.7-4.2-1.3-6.7,3.4,5.3,5.3,9.5,6.4,12.2M358,64.8v-.2c.2.2.3.3.4.5,0,.1.2.2.2.3-.2-.2-.4-.4-.6-.7ZM361.8,78.3c-.2-.6-.3-1.1-.4-1.7,0-2.3-.1-4.7-.5-7.4.2.3.3.7.5,1h0c.5,2.8.9,5.5,1.2,8.3-.2,0-.5-.2-.7-.2M366.8,66.4c2,5.8,4.1,12,5.7,18.2-.2-.4-.4-.8-.7-1.2-.3-1.1-.6-2.2-1-3.3-1.4-4.5-3.2-9-5.3-13.4-.2-1.2-.3-2.4-.5-3.5.6,1,1.1,2.1,1.7,3.2M373.7,86.8c-1.2-5.2-2.8-10.5-4.2-14.6.2.5.4.9.5,1.3.8,2.1,1.7,4.3,2.3,6.5.4,2,.8,4.1,1.3,6.1,0,.3.1.6.2.9,0,0,0-.2-.2-.3M379.5,108.9c.2-.5.3-1,.4-1.5,0,2.3,0,4.7-.1,6.9,0-.7-.2-1.5-.3-2.2v-3.3M376.7,136.2c0-.2.2-.5.2-.7,1.2-4,2.1-8.3,2.7-12.6,0,1.5,0,3,0,4.4,0,1.8-.2,3.6-.3,5.4-.6.9-1.2,1.8-1.8,2.7-.2.3-.5.6-.7.9ZM371.8,144.5c.3-1,.7-2,1-3,.4-.4.8-.8,1.2-1.2,0,.6,0,1.1-.1,1.6-.4,1.1-.8,2.2-1.2,3.3-.3-.2-.7-.5-1-.7ZM351.5,178c.4-.5.8-.9,1.2-1.5h0c-.1.2-.3.4-.4.7-.4.4-.8.8-1.1,1.1,0-.1.2-.2.3-.3M322.5,197.8c-.3.2-.7.5-1,.7-.1,0-.2,0-.3-.2.5-.2.9-.3,1.4-.5M307.5,202.4c4.3-1,8.6-2.2,12.7-3.8.2,0,.4.2.6.2-.5.3-1,.6-1.4.9h-.1c-.3.1-.6.2-1,.3-3.5,1-7.2,1.8-10.9,2.3M295.3,204.3c.5,0,.9,0,1.4-.1,1.5,0,3.1-.2,4.6-.3-2.7.9-5.6,1.7-8.5,2.3-.5,0-1,0-1.5-.1,1.3-.5,2.6-1.1,4-1.7M276.6,194.1c-1.7,0-3.4,0-5.1-.2,0-.3.2-.7.3-1h.8c.3,0,.7.2,1,.2,1.5.3,3.2.7,4.7.9h-1.8M286.2,187.4c-.6.2-1.2.4-1.7.6h-.2c-3.1-.2-6.3-.7-9.4-1.2,3.7.5,7.5.7,11.2.7ZM328.3,172.7l-.2.2c-.6-.1-1.2-.2-1.8-.3.3-.3.7-.6,1.1-1,.7,0,1.3.2,1.8.2-.3.3-.6.6-.8.9M351.8,141.5c.5-1.5,1-3.1,1.4-4.7v2.1c-.5.9-.9,1.7-1.4,2.6ZM352.4,118.4c0-.2,0-.4.1-.7.2,0,.3-.2.4-.2v.3c0,.4-.2.9-.2,1.3,0-.1-.2-.2-.3-.4v-.3h0ZM354.1,93.4c.2,1.8.2,4,.2,6.2-.8-2.3-1.6-4.6-2.5-6.9.2-.5.3-1.1.4-1.7h0c0-.1-.6-.2-.6-.2h0c0,.4-.1.7-.2.9-.2-.4-.3-.7-.5-1.1.8.2,1.7.2,2.5,0,0,.2.1.3.2.4v.2c.2.3.3.6.5.9,0,.4,0,.8,0,1.2M344.1,65.6c.4.7.9,1.4,1.3,2.2-.8-.8-1.6-1.6-2.4-2.4h0c.4,0,.8.2,1.2.2ZM336.2,48.1c.3.8.5,1.6.7,2.3-.4-.4-.7-.7-1-1-1.5-1.4-2.9-2.8-4.5-4.1,1.7.9,3.3,1.8,4.8,2.7ZM347.8,52.7c-.2-1-.5-2-.8-3.2.6.7,1.2,1.4,1.8,2.1,1.1,1.3,2.2,2.6,3.2,4,0,.5,0,.9.1,1.3-1.4-1.5-2.8-2.9-4.3-4.2ZM365.3,73.4c0-1,0-2.1,0-3.1,0,.4,0,.8.1,1.3,0,.8.1,1.5.2,2.3-.1-.2-.2-.3-.3-.5M374.9,89c0-.3,0-.6-.2-.8,0,.3.2.7.2,1,0,0,0-.2-.1-.2M377.6,96.6c.2.4.3.8.5,1.2.4,3.2.7,6.5.8,9.7-.3-2-.8-4.1-1.3-6v-.2c0-1.5,0-3.1,0-4.6ZM379.5,118.6c-.3,2.7-.7,5.4-1.2,8.1,0-.4.2-.8.2-1.3.4-2.7.7-5.5.8-8.4,0,.5,0,1,.1,1.5ZM370.1,148.6c.5-1.2,1-2.3,1.4-3.5.3.2.6.5.9.7-2.6,5.9-5.9,11.5-9.8,16.6,2.9-4.3,5.4-8.9,7.5-13.7M358.3,168.6s.1-.2.2-.3c1-1.1,2-2.2,2.9-3.3,2.3-2.8,4.5-5.9,6.5-9-2.1,4-4.5,7.8-7.1,11.3-.8.4-1.6.8-2.4,1.2M345.9,183.1c.4-1.2.8-2.4,1.2-3.5,1.2-1,2.4-2.1,3.6-3.2.4,0,.8.1,1.2.2-.3.5-.7.8-.9,1.2-1.4,1.7-2.9,3.3-4.4,4.9-.2.2-.4.3-.7.5ZM320.3,197.9c-.7-.3-1.3-.6-2-1,1.4-.8,2.8-1.8,4.2-2.8,2.7-1.1,5.5-2.3,8.1-3.6.3,0,.7,0,1.1,0-2.1,1.9-4.3,3.7-6.6,5.4-1.6.7-3.2,1.3-4.8,2ZM310.2,194.1c.5,0,1-.2,1.6-.3l1.1.7c-1.8,1.1-3.6,2.2-5.4,3.1-.2,0-.3.2-.4.2h-.2c-3.7.8-7.4,1.2-11,1.4-.8,0-1.7,0-2.6,0,2.7-.5,5.4-1.2,7.9-2,3-.9,6-2,9-3.2M295.3,189c-5.9,1.7-12.1,2.7-18.4,3-1-.2-1.9-.3-2.8-.5,2.2-.5,4.4-1,6.6-1.7,4.9.1,9.9-.2,14.6-.9ZM326.8,173.7c-.3,0-.5-.2-.8-.2-.2,0-.4-.1-.6-.2.1,0,.2-.2.3-.3.5.1,1.1.2,1.7.3-.2.1-.4.2-.6.4ZM348,148.5c.3-.4.6-.8.9-1.3,0,.1,0,.2-.1.3-.3.3-.5.7-.8,1ZM354.4,101.6v2h0c-.4-2.4-1-4.8-1.7-7.1.6,1.7,1.2,3.4,1.7,5.2M353,77.4c1,1.2,1.9,2.5,2.8,3.8,0,.1-.1.2-.2.3-.4.7-.7,1.4-.9,2.2-1.5-3-3.2-6-5-8.8,0-.2-.2-.3-.2-.5,1.2.9,2.3,1.9,3.5,3ZM348.5,74.2c.2.3.4.7.6,1,.2.4.4.9.6,1.3,1,2.4,1.9,4.8,2.6,7.3-1.1-3.1-2.4-6.1-3.9-9.1,0-.2,0-.3,0-.5ZM338.6,48.8c-.7-.8-1.5-1.6-2.2-2.4-.3-1-.7-2-1.1-3,4,2.8,8,5.9,11.6,9.3.1.2.3.3.4.5.2.7.3,1.5.5,2.1-2.9-2.3-6-4.5-9.2-6.5M352.8,56.6c.2.2.3.4.4.6.3.6.6,1.2.8,1.8-.4-.5-.8-.9-1.2-1.3,0-.3,0-.7,0-1ZM364.5,75.6c-.3-.7-.6-1.3-.8-2-.5-1.1-1-2.2-1.7-3.4.7.8,1.3,1.6,1.9,2.4.2.4.5.7.7,1.1,0,.6,0,1.3-.1,1.9M365.8,75.6c.1,1.3.3,2.6.4,3.9v.5c-.4-1-.8-2-1.2-3,0-.7.1-1.5.2-2.2.2.3.4.6.6,1M376.5,97.4c-.2-.8-.5-1.6-.8-2.5.2,0,.3-.1.4-.2.2.9.3,1.8.4,2.7ZM374.8,134.9v-.3c.4-1.6.8-3.3,1.2-5,1.1-5.2,1.8-10.5,2-15.9.3-.8.6-1.7.9-2.5,0,.3,0,.6.1.9,0,4.3-.4,8.8-1,13-.6,4.3-1.6,8.6-2.8,12.9-.1.1-.2.3-.3.4,0-1,0-2,0-3v-.7M377.8,105.7c.3,1.3.5,2.7.7,4-.2.7-.4,1.3-.6,1.9,0-2,0-4,0-6M377.1,115.6c-.3,4.7-.9,9.3-1.8,13.9-.2.9-.4,1.8-.6,2.7,0-.7,0-1.3-.1-2,.8-4,1.3-8.1,1.5-12.2.3-.7.7-1.5,1.1-2.3M375.3,119.3c-.2,2.8-.5,5.6-1,8.4,0-.8-.2-1.7-.3-2.5.3-1.7.7-3.5.9-5.2.1-.2.2-.4.3-.6M355.7,172.5c.7-.9,1.3-1.9,1.9-2.9.7-.3,1.5-.7,2.2-1.1-1.8,2.3-3.6,4.5-5.5,6.7.5-.9,1-1.8,1.5-2.7M337.2,186.1c.7-.8,1.5-1.6,2.2-2.4,2.5-1.5,5-3.1,7.4-4.8v.4c-2.4,2-4.9,3.8-7.4,5.5-.7.5-1.3.9-2.1,1.3M315.9,196.4c.3.2.7.4,1,.6-3.2,1.9-6.5,3.5-10.4,5-3.1.7-6.2,1.2-9.4,1.5,3.2-1.5,6.6-3.1,10-4.9,2.9-.5,5.9-1.3,8.8-2.2ZM288.2,187.4h.8c4.6-.2,9.2-.7,13.6-1.6l.5.5c-1,.4-2.1.8-3.1,1.2-1.6.3-3.2.6-4.8.9-3.1.1-6.2,0-9.3-.2.7-.3,1.5-.5,2.2-.8h0ZM301.5,184.5c.2.2.5.5.7.7-4,.8-8,1.3-12.1,1.5,1.1-.5,2.3-.9,3.5-1.4,2.7-.1,5.4-.3,8-.7M318.5,177.9c-2,1.4-4,2.7-6.2,3.9-3.5.8-7,1.5-10.7,2-.7-.6-1.3-1.1-1.9-1.6.8-.4,1.6-.8,2.3-1.2.7,0,1.3-.2,1.8-.2,5-.6,9.9-1.6,14.6-2.9ZM321.5,171.9c1.1.3,2.2.7,3.4.9,0,0-.2.2-.2.2-1.1-.3-2.2-.7-3.2-1.1M331.5,172.4c-.5.2-1,.5-1.6.7.6-.3,1.2-.6,1.8-.9,0,0-.2.1-.2.2M347.8,149.8c-.2.4-.4.9-.7,1.3-.1,0-.3-.1-.4-.2.3-.4.7-.8,1-1.2M353,144.1c-.5,1.2-1,2.3-1.6,3.4-.6.2-1.2.4-1.8.7.1-.3.2-.7.3-1,1.1-1.5,2.2-3,3.2-4.5,0,.5,0,1,0,1.5M353.6,127.7v-.7c.3-.3.6-.7.8-1.1-.2,1.9-.5,3.9-.9,5.9,0-.8,0-1.5-.1-2.3,0-.7,0-1.2.1-1.7M353.9,116.8c0,.5-.2.9-.3,1.4v-.4c0-.3,0-.5.1-.8,0,0,.1,0,.2-.1M348.5,65.9h.2c0,1.7-.2,3.4-.3,5-.4-.5-.8-.9-1.2-1.3-.7-1.3-1.4-2.5-2.2-3.8,1.3.3,2.5.3,3.5.1M352.2,59.1s-.3-.3-.5-.5c-.8-1.2-1.6-2.5-2.4-3.7,1,1,2,2,3,3v1.2M355.8,73s-.2.2-.3.3c-.2-.3-.4-.5-.6-.8-.7-1-1.5-2.1-2.3-3.2-.7-1.4-1.5-2.8-2.3-4.2.5-.3.9-.7,1.2-1.2.4-.7.7-1.5.9-2.5,1.6,2.7,3,5.5,4.4,8.3-.3,1.4-.6,2.5-1.1,3.3ZM357.3,66.4c0,.8-.1,1.5-.2,2.1-1.3-2.7-2.7-5.4-4.3-8,1.2,1.1,2.3,2.2,3.5,3.3.3.8.7,1.7,1,2.6M355.6,60.6s-.1-.2-.2-.4c.2.3.3.5.5.8-.1-.2-.2-.3-.3-.4ZM357.6,69.6c.1-.5.2-1.1.2-1.8,1.2,3,2.1,6,2.9,8.9v.3c-.9-2.5-2-5-3.1-7.4ZM363.1,73.9c.5,1,.9,2,1.3,3.1,0,.8-.2,1.7-.3,2.5-.3-.2-.7-.5-1-.6-.2-2.2-.5-4.4-.8-6.6.3.6.5,1.1.8,1.6M369.6,79.5c-1-1.6-2-3.2-3.2-4.7-.1-1.2-.2-2.3-.3-3.4,0-.6-.1-1.2-.2-1.8,1.4,3.3,2.6,6.7,3.6,9.9M375.3,118.1c0-.3,0-.7.1-1,0-.1,0-.2,0-.3v1c0,.1-.1.2-.2.3M364.2,155.7c-1.5,3.7-3.4,7.4-5.5,10.9-.2.3-.5.6-.7.9.9-2.2,1.8-4.5,2.5-6.9,1.3-1.6,2.5-3.3,3.7-5M351.3,175.8c1.4-1.4,2.8-2.8,4.2-4.3-.1.2-.2.5-.3.7-.9,1.3-1.8,2.5-2.8,3.7-.3,0-.7,0-1.1-.1M328.9,189.5s-.2,0-.2,0c.5-.4,1-.8,1.5-1.3,2.2-1,4.4-2,6.5-3.1.3-.2.6-.3.9-.5-.8.9-1.7,1.9-2.6,2.8-1.5.9-3.1,1.8-4.6,2.5-.5,0-1-.2-1.5-.4ZM310.4,201.1c2.5-1.1,4.9-2.3,7.2-3.7.6.3,1.2.7,1.8.9-2.9,1.1-5.9,2-9,2.8M319.9,195.1c-.8.5-1.6,1-2.3,1.5-.3-.2-.5-.3-.8-.5.7-.2,1.3-.4,1.8-.6.4-.2.9-.3,1.3-.5M308.7,191.5c.7.6,1.4,1.1,2.1,1.6-.3.1-.5.2-.8.3-4.9.8-10,1.3-15,1.3,1.7-.6,3.3-1.2,4.9-1.8,2.9-.3,5.9-.8,8.7-1.4M296.9,189.9c1-.3,2.2-.7,3.7-1.3,1.5-.2,2.9-.3,4.4-.5.2.2.4.4.6.6-4.9,1.9-10,3.3-15.1,4.2-2.9,0-5.8,0-8.7-.3,6.8-.6,12.3-1.9,15.1-2.6M328.3,174.9c-.5.4-1.1.8-1.7,1.2-.6.3-1.2.7-1.8,1,.7-.7,1.4-1.4,2.1-2,.3-.1.5-.2.8-.3.2,0,.4.1.5.2M342.9,162c-.7,1.2-1.4,2.5-2.1,3.7-.9.6-1.8,1.1-2.6,1.6,1.7-1.7,3.2-3.4,4.7-5.3M347.6,151.9c-.9,2.3-1.9,4.7-3,6.9-2.2,2.9-4.5,5.7-7.1,8.3,3.9-4.6,7.3-9.7,10.1-15.2h0ZM346.7,155.8c.5-1.2,1.1-2.5,1.5-3.7.2,0,.5.1.7.2-.7,1.2-1.5,2.4-2.2,3.6ZM348.4,151.5c.3-.9.7-1.8,1-2.7.5-.2,1.1-.4,1.7-.6-.6,1.2-1.2,2.3-1.8,3.4-.3,0-.5-.1-.8-.2ZM356.5,136.7c.7-1.3,1.3-2.6,1.8-3.9v.7c-.7,4.2-1.8,8.5-3.2,12.5-.5.2-1,.4-1.5.6,0-.8,0-1.6.1-2.4,1-2.5,2-5,2.8-7.5ZM354.7,111.9v.5c-.2,1.2-.4,2.3-.6,3.5,0,0-.2.1-.2.2.3-1.8.5-3.7.7-5.7,0,.5,0,1,.2,1.5M356.3,88.5c-.2.2-.4.3-.5.4-.3.2-.7.5-1.1.6,0-1.5.1-2.8.3-3.9.5.9.9,1.9,1.3,2.9ZM349.4,73s-.3,0-.5-.1v-.2c0,0,0-.4,0-.4.2.2.4.4.6.6M355.6,62.3c-.9-.9-1.8-1.8-2.8-2.6,0-.3,0-.7,0-1.1.7.8,1.5,1.6,2.2,2.3.2.5.4.9.6,1.3ZM357.4,64.1c-.2-.2-.4-.4-.6-.7-.1-.3-.3-.6-.4-.9,0,0,.2.2.2.3.3.3.5.7.8,1v.3h0ZM367.2,150.8c1.1-2.1,2.2-4.2,3.1-6.5.2.2.4.3.7.5-.5,1.3-1,2.5-1.5,3.7-2.1,5-4.7,9.7-7.8,14.2,1.7-3.2,3.1-6.4,4.3-9.7.4-.7.8-1.4,1.2-2.1M361.9,156.1c1.6-2.5,3.1-5.2,4.5-7.9.4-.6.7-1.2,1.1-1.8-.6,2-1.2,4.1-2,6.1-1.3,2.2-2.8,4.3-4.3,6.4.3-.9.5-1.9.8-2.8M349,177c-.5.5-1,.9-1.5,1.4h0v-.2c.6-.4,1-.8,1.5-1.1M347.6,175.8c-.2.7-.4,1.3-.6,2-2.1,1.5-4.2,3-6.5,4.3,1.8-2.2,3.4-4.5,5-6.8.7.2,1.4.3,2.1.5M315.1,193.1c-.5.3-1,.7-1.5,1l-.8-.5c.8-.2,1.5-.3,2.3-.5ZM313.6,194.9c.5.3,1.1.7,1.7,1.1-2,.6-4,1.1-6.1,1.5,1.5-.8,3-1.7,4.4-2.6ZM298.3,188.8c-.6.2-1.2.4-1.6.5-.7.2-1.6.4-2.7.7,1.3-.3,2.6-.7,3.9-1.1h.4M353.3,150.6c.1-1,.2-2.1.2-3.2.4-.2.8-.3,1.2-.5-.5,1.2-.9,2.5-1.5,3.7M354.8,116.1c-.2,1.5-.5,3-.9,4.5,0,0,0,0-.1-.2.3-1.4.6-2.8.9-4.2,0,0,0,0,.1-.1ZM355,103.9s0,0,0,0c0,.2.1.4.2.6,0,1.3,0,2.7-.2,4,0-.5-.1-1-.2-1.5,0-1,.1-2,.2-3.1M356.1,89.4s.3-.2.4-.3c.6,1.5,1.2,3,1.8,4.5,0,0,0,.2,0,.3h0c0,1.7.1,3.5.2,5.3-.2.2-.3.5-.5.7-.4-1-.8-2-1.2-2.9-.6-2.3-1.3-4.5-2.2-6.8.5-.2.9-.5,1.3-.8M353.7,73.7c-.2,0-.4,0-.7,0-.8-.1-1.6-.2-2.5-.4-.5-.5-.9-1.1-1.5-1.7.2-1.6.3-3.3.4-5.1,1.6,2.4,3.1,4.9,4.4,7.3ZM350.1,64.6c-.3-.4-.5-.9-.8-1.3,0-1.8-.2-3.8-.6-6.3.8.7,1.6,1.3,2.4,2.1.3.5.6.9.9,1.5-.2,1.2-.5,2.3-1,3-.3.4-.6.7-1,1M360.4,80.1c0,.3-.1.7-.2,1-.3-.7-.7-1.3-1.1-2,.4-.1.9-.2,1.5-.2,0,.5-.1.8-.2,1.2M367.1,86.4c-.2.6-.4,1-.8,1.1-.2.1-.5.2-.7.2-.5,0-1.2-.2-1.7-.3-.1-.4-.2-.7-.3-1.1.4-2,.7-3.8,1-5.5.5.4,1,.9,1.5,1.5l.2.2h0c.2.7.5,1.4.7,2.1.1.9.2,1.5,0,1.9M369.2,80.2c.3.5.7,1.1,1,1.6,0,.2.1.4.2.6-.4-.7-.8-1.5-1.2-2.2ZM374.3,95.1c-.2-1.2-.4-2.5-.6-3.7.2.5.4,1.1.6,1.6,0,.7.2,1.3.3,1.9,0,0-.2.1-.3.2M370.1,143.1h-.1c-.3,0-.5-.2-.7-.3,1.2-2.7,2.2-5.9,3-9.3.2-.7.3-1.5.5-2.2.4-1.3.7-2.7,1-4.1.1,1,.2,2,.3,3-.9,4.5-2.2,8.9-3.9,13M369.5,144.4c-.7,1.7-1.5,3.3-2.3,4.9.4-1.3.8-2.7,1.2-4,.4-.3.8-.6,1.2-.9ZM349.4,171.8v-.3c3.4-2.5,6.9-5.8,10-9.5-.8,2.5-1.8,4.9-2.9,7.3h0c-.8.5-1.7.8-2.5,1.1-1.5.5-3,1-4.5,1.4M348.4,175.3c.3-.9.5-1.8.8-2.7,1.7-.4,3.4-.9,5-1.5.4-.2.8-.3,1.2-.5-1.8,1.7-3.6,3.4-5.5,5-.5,0-1-.2-1.4-.3ZM328.1,189h-.2c0,.1,0,.1,0,.1,0,0,.2,0,.2,0M328.6,190.1c.3,0,.5.2.8.2-1.6.8-3.2,1.5-4.9,2.2,1.1-.8,2.2-1.7,3.5-2.7.2.1.4.2.6.2ZM316.7,192.7c3.5-.9,7-2,10.4-3.3,0,0,.2.1.3.2-1.9,1.5-3.7,2.8-5.3,4-1.3.5-2.5.9-3.7,1.3-.7.2-1.5.5-2.3.7-.7-.4-1.3-.8-1.9-1.2.9-.6,1.8-1.2,2.6-1.8M312.2,186.7c3.8-.9,7.5-2.1,11.1-3.5.2.7.3,1.3.5,1.8,0,.3.2.6.3.8-.3.2-.6.4-.9.6-1.6.7-3.3,1.2-4.9,1.8-3.1,1-6.3,1.9-9.5,2.6-.5-.4-1-.8-1.5-1.3,1.7-.9,3.3-1.8,4.9-2.8M310.2,183s-.2.1-.3.2c0,0-.2,0-.3.2h-.2c-2.1.7-4.3,1.2-6.5,1.7-.2-.2-.4-.4-.7-.6,2.7-.4,5.4-.8,8-1.4M322.6,177c.5-.3,1.1-.7,1.6-1,.4-.2.8-.3,1.2-.5-.8.8-1.7,1.7-2.6,2.4,0-.3-.2-.7-.2-1ZM334.9,172.8c-.4.2-.8.4-1.2.7-.5,0-1,0-1.5-.1.4-.3.8-.6,1.2-.8.5,0,.9.2,1.4.3ZM338.4,168.8c.3-.3.7-.5,1-.8,0,.1-.2.3-.3.4-.2.2-.5.3-.7.4M341.1,166.5s.3-.3.5-.4c.2-.1.3-.2.5-.4,1-.6,2-1.2,2.9-1.8h0c.7-.5,1.3-.9,2-1.3-.2.3-.4.6-.5.8-1.8,1.3-3.6,2.6-5.4,3.8-.3.2-.5.3-.8.5.3-.4.5-.8.7-1.1h0ZM352.5,152.4h0c0,0-.2.4-.2.6-2.3,3.2-4.9,6.3-7.7,9.2-.8.8-1.5,1.6-2.4,2.3,1-1.8,2-3.5,2.8-5.4.4-.6.8-1.1,1.1-1.5,1.2-1.7,2.3-3.5,3.4-5.3.9.1,1.9.2,2.9,0M349.9,151.8c.7-1.2,1.4-2.5,2-3.8.3-.1.6-.2.9-.3,0,1.4-.2,2.8-.3,4.2-.9,0-1.8,0-2.6,0ZM357.3,131.1c-.4,1.8-.9,3.6-1.4,5.4-.7,1.3-1.3,2.5-2.1,3.8v-1.2c1.3-2.5,2.5-5.2,3.5-8M353.8,123.7c0-.3.2-.7.3-1,.2-.2.3-.5.5-.7,0,0,.2.2.2.2h0c0,.5,0,.8,0,1.3-.3.3-.7.6-1,.9v-.7M355.2,102.1c0-.2-.1-.4-.2-.6v-3.3c.1,1.3.2,2.6.2,3.9ZM356.1,102.1c-.1-1.9-.3-3.8-.6-5.7.5,1.6,1,3.2,1.4,4.9-.3.3-.5.5-.8.8ZM356.2,81.8c.6.8,1.1,1.6,1.7,2.4.2.6.3,1.2.5,1.7-.5.8-1,1.5-1.6,2.1-.5-1.2-1-2.3-1.6-3.5.2-1,.6-1.8,1-2.7M352.9,74.3c.3,0,.8,0,1.2.1.6,1.1,1.2,2.2,1.7,3.3.3.7.6,1.5.8,2.3-.1.2-.3.3-.4.5-.6-.8-1.2-1.6-1.8-2.4l.2-.2h0c-.3-.4-.7-.7-1-1.1-.8-1-1.6-2-2.4-3,.7.1,1.2.2,1.8.3M349.3,65v-.5c0,.1.2.3.2.4,0,0-.2,0-.2.1ZM352,69.4s.1.2.2.2c0,.1.1.2.2.3-.1-.2-.2-.4-.3-.6M349.9,65.4c.2.3.4.7.6,1-.3-.3-.5-.7-.8-1,0,0,.2,0,.2,0M361,86.5h-.2c-.2,0-.4,0-.6.1-.2-.3-.4-.7-.6-1,0-.2,0-.3-.2-.4.3-.7.7-1.5.9-2.3.3.7.6,1.2.8,1.7.3.7.7,1.4,1,2.1-.4-.1-.8-.2-1.2-.3M362.2,89.9c-.5-.9-1.1-1.9-1.6-2.8.1,0,.2,0,.4,0,.5,0,1.1.2,1.6.4v.3c0,.7-.2,1.4-.3,2.1M364.9,96.5c0,.2.2.4.3.6v.2c.6,3.5.9,7.2,1,10.7v.7h0c-.3.7-.7,1.3-.9,1.8-.5.9-1.1,1.8-1.7,2.7,0-.6-.1-1.1-.2-1.7.2-3.8,0-7.9-.5-12,.3-1.8.5-3.8.7-5.7.5,1,1,1.9,1.4,2.8M369.8,82.7h-.1v.2c.9,1.7,1.5,3.6,2,6,0,.3.1.7.2,1,.2,1.3.2,2.3.3,3.3,0,1.1,0,2.2.3,3.7-.5.7-1,1.5-1.6,2.5-.5-5-1.6-10-3.1-15,0-.7-.2-1.4-.4-2.2-.1-.7-.3-1.4-.3-2,0-.3,0-.5-.1-.8,0-.1,0-.2,0-.2.1,0,.3.3.7.9h0c0,0,.5-.3.5-.3h0c-.6-1-1-1.4-1.4-1.3,0-.5-.2-1.1-.2-1.7,1.1,1.9,2.2,3.8,3.2,5.8M373.6,95.6s0-.3-.1-.5c0-.1,0-.5-.4-2.4-.2-1.2-.4-2.6-.7-4,0-.3,0-.5-.1-.8,0,.1,0,.2.2.3.5,2.4,1,4.9,1.3,7.3h0M374.9,101.4c-.1-1.8-.3-3.7-.6-5.6,0,0,0,0,.1,0s0,0,.2-.1c.2,2,.3,4.1.4,6.1,0-.1,0-.2,0-.3ZM355.3,164.9c1.9-2.2,3.7-4.5,5.4-7-.2.8-.5,1.7-.8,2.5-3.1,3.8-6.7,7.4-10,10,1.9-1.8,3.7-3.6,5.4-5.5ZM349.2,176.1c-.5.3-.9.7-1.3,1,.1-.4.2-.8.3-1.2.3,0,.6.1,1,.2ZM345.3,174.4s0,.2-.2.2h-.1s.2-.2.2-.2M332,186.7c.5-.4,1-.9,1.6-1.3,3.1-2.7,6.1-5.6,8.9-8.8.7-.5,1.3-1,1.9-1.5.1,0,.2,0,.4,0-1.8,2.8-3.8,5.4-5.9,7.9-.8.5-1.7.9-2.4,1.3-1.4.8-2.9,1.5-4.4,2.2M314.2,183.7c1.3-.6,2.7-1.2,4.1-1.9-1.5,1.2-3.1,2.3-4.7,3.3-.8.4-1.6.8-2.4,1.2-1.9.5-3.9.8-5.9,1.1-.2-.2-.3-.3-.5-.5,3.2-.9,6.4-2,9.4-3.3M307.2,185.6c1.2-.6,2.5-1.3,3.8-2,2.9-.9,5.8-2,8.5-3.2-1.8,1-3.7,1.9-5.6,2.7-2.2.9-4.4,1.7-6.7,2.5M332.7,174c-.7.3-1.3.7-1.9,1h0c-.2,0-.5-.1-.7-.2.5-.3,1-.6,1.4-.9.4,0,.8,0,1.3.1ZM336.8,171.6c-.4.2-.7.5-1.1.7-.5-.1-1-.2-1.5-.3.3-.2.7-.5,1-.7,1-.5,2-1.1,3.1-1.7-.5.7-.9,1.4-1.4,2ZM356.7,145.9c-.8,1.4-1.7,2.8-2.5,4.2.5-1.2,1-2.5,1.4-3.7.3-.2.7-.3,1.2-.5ZM356.1,123.3s.2.2.3.3c.6.4,1.3.8,1.9,1.2v.5h0c0,.4,0,.8-.1,1.1-1.2,3.9-2.6,7.7-4.4,11.4,0-1.1,0-2.2,0-3.3.7-3.2,1.2-6.5,1.5-9.7.3-.4.5-.9.8-1.3ZM357.5,111.9c-.3-1.9-.8-3.9-1.3-5.8,0-1,0-2.1,0-3.1.3-.3.6-.6.9-.9.7,2.7,1.2,5.4,1.5,8-.3.7-.7,1.2-1.1,1.8ZM361.9,93.7c.2-.7.4-1.3.6-2,0,.2.2.3.3.5,0,1.3-.2,2.7-.3,4.1-.2-.8-.3-1.7-.5-2.5M361.9,103.6c.2-.7.4-1.3.5-2,.2,2.2.3,4.3.4,6.4-.3-1.5-.5-2.9-.9-4.4M365.3,146.7c.7-1.3,1.5-2.7,2.1-4l.6.2c-.4.9-.8,1.8-1.2,2.8-.5.3-1,.7-1.5,1ZM364,151.3c-.5,1-1.1,1.9-1.6,2.8.1-.5.2-1,.3-1.4.5-.5.9-.9,1.3-1.4ZM350,169.4c.3-1.3.7-2.6.9-3.9l.2-.4c3.2-3.1,6.2-6.5,8.8-10.1.3-.2.6-.5.9-.7.3-.3.7-.6,1-.8-.2.8-.4,1.6-.6,2.3-2,3.1-4.2,6-6.5,8.6-1.5,1.7-3.1,3.4-4.8,5M346.7,173.5c.2-.2.5-.3.8-.5.3,0,.7-.2,1-.2-.2.8-.5,1.6-.7,2.4-.7-.1-1.3-.3-1.9-.4.3-.4.5-.8.8-1.3M340.1,178.2c-2.2,2.3-4.5,4.5-6.9,6.6-1.2,1-2.3,1.9-3.3,2.8-.9.4-1.8.7-2.7,1.1-.9-.6-1.6-1.4-2.2-2.3,5.3-2.2,10.4-5,15-8.1M324.5,186.6c.5.9,1.2,1.7,2,2.3-2.7,1-5.5,1.9-8.3,2.7,2.1-1.5,4.1-3.2,6-4.9h.3c0-.1,0-.1,0-.1ZM314.1,185.6c3-1.5,5.9-3.3,8.6-5.2.2.8.3,1.5.5,2.2-3,1.2-6,2.2-9.1,3ZM335,174.1c-.4.5-.8,1.1-1.3,1.7-.7-.1-1.3-.3-2.1-.5.8-.4,1.6-.8,2.3-1.2h1.1M345.4,165c-.3.4-.6.8-.9,1.3-2,1.5-4,3-6.2,4.4.4-.6.8-1.2,1.2-1.8h0c.7-.5,1.3-.9,2-1.2,1.3-.8,2.7-1.7,4-2.7M355.9,145.6c.7-2.2,1.4-4.5,2-6.7-.2,2.1-.5,4.2-.9,6.3-.3.2-.7.3-1,.5M358.4,100.6s.2-.2.3-.3c0,.4,0,.8,0,1.2-.1-.3-.2-.6-.3-.8ZM357.2,79.4c-.3-.6-.6-1.3-.9-1.9-.4-1-.8-2.1-1.3-3.2.1,0,.2,0,.3,0,1,1.5,1.9,3,2.8,4.6-.3.2-.7.4-1,.6ZM359.2,84.3c-.2-.5-.4-1.1-.6-1.6-.3-.9-.7-1.8-1.1-2.7.3-.3.7-.5,1-.7.5.9,1,1.8,1.5,2.7-.2.8-.5,1.6-.8,2.3M372.9,95.4c0,.2.1.4.2.6h0c0,.1,0,.2,0,.2,0-.3,0-.6,0-.8ZM373.3,120.3c-.6-3.1-1.3-6.2-2.2-9.3.2-2.7.1-5.4,0-8.1,0-.8-.1-1.5-.2-2.4.6-1,1.1-1.9,1.6-2.7.5,3.7,1.3,12.7.8,22.4M368.8,143.8h0c0-.1.1-.3.2-.5.2,0,.3.2.5.3-.3.2-.5.5-.8.7,0-.2,0-.3.1-.5M369.1,139c-.2.8-.3,1.6-.5,2.4-.1.3-.2.6-.3.9-.2,0-.4-.2-.6-.2.5-1,.9-2,1.4-3ZM366.3,146.9c-.2.3-.3.7-.5,1-.9,1.3-1.8,2.6-2.9,3.7,0-.4.2-.7.2-1.1.5-.8,1-1.7,1.5-2.5.5-.3,1.1-.7,1.6-1.1M345.6,173.3c-.2.2-.5.3-.7.4,0-.1.2-.2.2-.3.2,0,.3,0,.5,0ZM333.2,176.4c-.7.8-1.4,1.7-2.2,2.6-2.3,1.2-4.8,2.4-7.3,3.4-.2-.7-.3-1.4-.5-2.3.9-.7,1.8-1.3,2.7-2,1.6-.7,3.2-1.4,4.8-2.2.9.3,1.7.5,2.5.6M335.9,173s-.2.3-.4.5h-.5c.3-.2.6-.3.8-.5ZM352,155.7c-.3.3-.6.7-.9,1,.4-.7.7-1.4,1-2.1,0,.4,0,.8-.2,1.2M359.4,129.9c.5-1.3,1-2.8,1.4-4.2.8.3,1.7.4,2.5.5-.1,2-.3,4-.6,5.9-.6,1.7-1.2,3.5-1.9,5.2-.9,2.2-2,4.5-3.1,6.7.6-3.4,1-7,1.2-10.5.2-1.2.4-2.4.5-3.7M358.8,120.3c0,.4,0,.7,0,1.1,0-.3,0-.6,0-.9,0,0,.1-.1.2-.2M359.4,105.7c.2.6.3,1.2.5,1.7-.2.4-.3.8-.5,1.2v-2.9M359.6,97.4c-.2.3-.3.5-.4.7,0-.8,0-1.5,0-2.2.2.5.3,1,.5,1.5M362.4,114.9c-.3-1.2-.6-2.5-.9-3.8.1-1.8.2-3.6.2-5.4.4,2,.7,3.9,1,5.8,0,1.1-.2,2.2-.3,3.3ZM362.8,116.8v-.3c.1-.4.2-.8.2-1.4,0,0,0,0,0,0,.2,1.7.3,3.5.3,5.2-.2-1.2-.4-2.3-.6-3.4M366.5,98.4c-.2-.4-.4-.8-.6-1.3,0-.4-.1-.8-.2-1.2.3.8.5,1.6.8,2.5ZM342,173.8c.7,0,1.4-.2,2.2-.3-.2.2-.4.5-.5.7-.5-.1-1.1-.3-1.6-.4M329.8,180.3c-1.7,1.8-3.4,3.5-5.2,5.2,0-.2-.2-.4-.2-.6-.2-.6-.3-1.2-.5-1.9,2-.8,4-1.7,5.9-2.7ZM337,172.6s.2-.3.3-.5c2-1.2,3.9-2.5,5.7-3.9-1.3,1.7-2.7,3.3-4.1,4.9-.7-.2-1.4-.3-2-.5ZM351.4,160.1h0c-1.6,1.7-3.3,3.2-5,4.7.2-.3.5-.7.7-1,1.5-1.2,3-2.4,4.4-3.7M348.4,160.4c-.2.3-.4.6-.6.9-.5.3-1,.6-1.5.9.7-.6,1.4-1.2,2.1-1.9M352.3,158.4c.1-.8.2-1.5.3-2.2v-.2c.8-.8,1.5-1.7,2.2-2.5-.3,1.2-.7,2.4-1.2,3.5-.5.5-.9.9-1.4,1.4ZM355.9,152.2s.2-.2.2-.3h0c.4-.2.8-.3,1.2-.5-.5,1.1-.9,2.2-1.4,3.3-.4.4-.8.8-1.2,1.3.4-1.3.8-2.5,1.2-3.8M357.6,145.6v-.2c.9-.4,1.6-.8,2.3-1.2-.2.7-.5,1.4-.7,2.1-.9,1.4-1.9,2.8-2.9,4.2.4-1.5.7-2.9,1-4.4.1-.2.2-.4.3-.5M359.2,125.2c0,.8-.1,1.7-.2,2.5v-1.8c0-.2.1-.4.2-.6h0c0,0,0,0,0,0ZM359.9,98.3c.4,1.4.8,2.8,1.2,4.2,0,.5,0,1.1,0,1.7-.2.8-.5,1.5-.8,2.3-.3-1-.6-2-.9-3,0-1.4,0-2.8-.1-4.2.2-.3.4-.7.6-1M361.1,95.8c.1-.3.3-.6.4-1,.2,1.2.5,2.4.7,3.6-.2,1-.3,2-.5,2.9,0-.3,0-.6,0-.8-.1-1.5-.3-3.2-.5-4.7M360.4,95.7c-.1.3-.2.6-.4.8-.3-.9-.6-1.8-.9-2.7,0-1.8,0-3.1.2-4.2.4,2,.8,4,1.1,6M360,121.8c.3-1.2.5-2.4.7-3.7.5-.6,1-1.2,1.4-1.7,0,.1,0,.2,0,.3-.5,2.8-1,5.5-1.8,8.1-.2,0-.3-.1-.5-.2,0-.9,0-1.9.1-2.9M360,118.1c0-2-.2-4-.4-6,.3-.9.6-1.8.9-2.7.2.6.3,1.2.5,1.8-.2,2.3-.4,4.5-.8,6.8v.2c-.1,0-.1,0-.1,0ZM360.9,116.9c.2-1.3.3-2.5.5-3.8.2.8.4,1.7.5,2.5-.3.4-.7.9-1,1.3ZM360.8,108.1c.1-.4.2-.8.3-1.2,0,.7,0,1.4,0,2.1,0-.3-.2-.6-.3-.9M360.3,97.5s.2-.3.3-.5c0,.7.2,1.5.2,2.2-.2-.5-.3-1.1-.5-1.7ZM360.2,125.5c-.2.5-.3,1-.5,1.5,0-.5,0-1.1.1-1.7.1,0,.2,0,.3.1ZM363.4,125.7c-.8-.1-1.6-.3-2.3-.5.6-2.1,1.1-4.3,1.5-6.5.3,2.1.7,4.2.9,6.2,0,.3,0,.5,0,.8M359.3,110.1c.2-.3.3-.6.5-.9-.2.5-.3.9-.4,1.3,0-.2,0-.3,0-.4M365.8,110.8c.1-.2.2-.5.4-.7,0,5.3-.6,10.5-1.8,15.7h-.3c0-.3,0-.6-.1-.9v-.5c.1-3.3,0-6.7-.3-10.1.8-1.1,1.5-2.3,2.1-3.4M366.8,107.5c0-2.7-.3-5.5-.6-8.2.5,1.2,1,2.4,1.5,3.6.2.6.3,1.2.4,1.9-.4.9-.8,1.8-1.3,2.7M371,124c0-2.4-.2-4.9-.3-7.3.2-1.3.3-2.5.4-3.8.8,3,1.5,6,2,8.9-.7.8-1.3,1.6-2,2.2ZM370.2,136.4c.6-1.5,1.1-3.1,1.6-4.7.2-.5.3-.9.4-1.4,0,.3,0,.5-.2.8-.6,2.3-1.3,4.6-2.1,6.9,0-.5.2-1,.2-1.5M363.6,147.8c.1-.8.2-1.5.3-2.1.7-1.2,1.4-2.3,2-3.4.3,0,.6,0,1,.2-.8,1.7-1.7,3.3-2.7,5-.2.1-.4.2-.6.4M355.5,157.1c.1-.2.2-.4.3-.6,1.9-2.1,3.6-4.3,5.3-6.6.5-.2,1-.5,1.4-.7,0,0,.2,0,.2-.1,0,.4-.1.8-.2,1.2-.6,1-1.2,1.9-1.8,2.7-.3.5-.7,1-1.2,1.7-1.4,1.1-2.7,1.8-4,2.5ZM358.2,156.3c-1.8,2.4-3.9,4.7-6,6.9,1-1.6,1.9-3.3,2.7-5v-.2c1.1-.5,2.2-1.1,3.3-1.8M361.8,148.8c.4-.6.8-1.2,1.2-1.7,0,.4-.1.8-.2,1.2h0c-.2.2-.4.3-.6.4-.1,0-.2.1-.3.2ZM363.5,148.6s0,0,0,.1h0q0,0,0,0M359.3,150.7c-.6.8-1.3,1.6-1.9,2.3.3-.7.5-1.3.8-1.9.4-.1.7-.3,1.1-.4ZM363.8,138c-.7,1.5-1.5,3.1-2.3,4.6-.2,0-.3.2-.5.2,1-3.5,1.8-7,2.3-10.5.2-.5.3-1.1.5-1.7h0c.1,2.5.1,4.9,0,7.4M364.2,126.4h.1c0,.1,0,.2,0,.3v-.3M369.3,107.4c.4,1.2.8,2.5,1.2,3.7,0,.8-.1,1.7-.2,2.6-.3-2.1-.6-4.2-1-6.3M365.3,141.7c-.3,0-.7,0-1,0,0-1.2.2-2.4.2-3.5,1.4-3.1,2.7-6.3,3.6-9.6.2-.8.5-1.7.7-2.7.5-.2,1-.4,1.5-.7,0,2.1-.1,4.3-.3,6.3-.8,2.3-1.8,4.5-2.9,6.6-.6,1.1-1.2,2.3-1.8,3.4h-.1ZM361.9,143.1c.5-.3,1.1-.5,1.6-.6,0,.8-.2,1.7-.3,2.5-1,1.5-2.1,3.1-3.2,4.5-.5.2-1.1.5-1.6.7.5-1.2.9-2.5,1.3-3.7.7-1.2,1.4-2.3,2.1-3.5ZM362.5,142.2c.5-.8.9-1.7,1.3-2.5,0,.7,0,1.4-.2,2.1-.4,0-.8.2-1.2.3M365,142.3c-.3.5-.6,1-.9,1.5,0-.5,0-.9.2-1.4.3,0,.5,0,.8,0M367.5,128.5c-.8,2.7-1.8,5.4-3,8,0-1.9,0-3.8,0-5.8,0-.6,0-1.2-.1-2,.2-.8.4-1.6.6-2.3,1,0,2.1,0,3.2-.3-.2.9-.4,1.6-.7,2.3M369,125.3c.5-1.8.8-3.7,1.2-5.6,0,1.7.2,3.3.2,4.9-.4.3-.8.5-1.3.7M360.7,143.8h0c0,0-.1.1-.2.2,0,0,0-.2,0-.3M366.9,108.9c.5-1,1-2.1,1.5-3,0,.4.2.8.2,1.2.6,3.2,1.1,6.4,1.4,9.6-.4,2.9-.9,5.9-1.7,8.8-1,.2-2.1.3-3.2.3,1.2-5.5,1.8-11.2,1.7-16.9M362,136.1c-.5,2.4-1.1,4.9-1.8,7.3-.7.4-1.3.7-2,1.1,1.2-2.2,2.2-4.5,3.2-6.8.2-.5.4-1.1.6-1.6M358.4,148.8c-.2.6-.5,1.2-.7,1.8-.3,0-.5.2-.8.3.5-.7,1-1.4,1.5-2M353.5,159.6c.1-.3.2-.6.3-.9h.2c-.2.2-.4.6-.5.9ZM352.7,159.8c-.3.9-.7,1.8-1.1,2.8.1-.7.3-1.3.4-2,.2-.3.5-.5.7-.8ZM371.2,131.5c-.2.7-.4,1.3-.7,2,0-.4,0-.8.1-1.2h0c0-.1,0-.2.1-.3.4-1,.8-2.1,1.2-3.2-.2.9-.5,1.8-.8,2.7M349,160.6c.3-.6.7-1.2,1-1.8.6-.6,1.2-1.3,1.8-1.9-.1.8-.2,1.5-.4,2.3h0c-.8.5-1.5.9-2.2,1.3-.1,0-.2.1-.3.2M349.2,161.3c-.3.3-.7.6-1.1.9,0-.1.2-.3.2-.4.3-.2.6-.3.8-.5M326.2,185.2c3.6-2.6,7.1-5.4,10.2-8.5,2,0,4-.4,6.2-1.3-.2.2-.4.5-.6.7-4.9,3.5-10.2,6.6-15.8,9.1M338,174.1c-.6.7-1.2,1.3-1.8,1.9-.6,0-1.2,0-1.7-.1.5-.6.9-1.2,1.3-1.8h2.2ZM337.5,175.9c.9-.6,1.8-1.2,2.8-1.8.2,0,.4.1.6.2h.4c.5.2.9.3,1.3.5-1.8.7-3.5,1.1-5.2,1.3M338.5,174.5s.3-.3.4-.4h.2c-.2.2-.4.3-.7.4M344.9,166.8c2.2-1.7,4.2-3.5,6.2-5.4-.2,1.1-.5,2.3-.7,3.5l-.2.3c-1.9,1.8-3.9,3.6-6,5.2-1.3,1-2.7,2-4.1,3h-.5c1.7-2,3.2-3.8,4.7-5.8.2-.3.4-.5.5-.8h0ZM336.3,173.5s.2-.2.2-.3h0c.5,0,.9.1,1.4.2h-1.6,0ZM328.2,182.9c1.1-1.1,2.2-2.3,3.3-3.5.8-.5,1.7-.9,2.6-1.4-1.9,1.7-3.8,3.4-5.9,4.9ZM348.7,167.4c-1.3,1.8-2.6,3.7-4,5.4-1.1.2-2.2.3-3.3.4,1.1-.8,2.2-1.6,3.2-2.4,1.4-1.1,2.8-2.2,4.1-3.4ZM366.2,141.7c1.3-2.4,2.5-4.8,3.5-7.3,0,.6-.2,1.2-.2,1.8-.7,1.9-1.5,3.8-2.4,5.7-.3,0-.6-.2-.9-.2ZM372.7,123.2c-.5,2.1-1.2,4.2-1.8,6.2,0-1.5.1-3,.1-4.6.6-.5,1.2-1,1.7-1.7ZM369,104.5c.5-1,.9-2,1.4-2.9,0,.5,0,.9,0,1.3.1,2,.2,4.1,0,6.2-.5-1.5-1-3-1.6-4.6M360.9,94.5c-.3-2.1-.7-4.2-1.2-6.2,0,0,0-.1,0-.2.6,1.8,1,3.7,1.5,5.6,0,.3-.2.6-.3.9M350.7,156.1c-.4.7-.8,1.5-1.2,2.2-1.2,1.1-2.3,2.2-3.5,3.3,1.7-1.8,3.2-3.6,4.7-5.5ZM335.2,176.6c-.8.5-1.7,1-2.5,1.5.5-.5.9-1,1.3-1.6.4,0,.8,0,1.2.1ZM348.6,168.7c-.7,1.3-1.4,2.6-2.2,3.8-.3,0-.5.1-.8.2,1-1.3,2-2.6,2.9-4ZM362.2,151.9s0,.3-.1.5c-.2.2-.4.4-.7.6.2-.3.5-.7.8-1.2M365.6,88.3c.4,0,.7,0,1-.2.5-.3.8-.7,1.1-1.4,1.3,4.5,2.1,9.2,2.5,13.7-.6,1.1-1.1,2.2-1.6,3.2-.1-.3-.2-.6-.3-.9-.9-3.7-2-7.4-3.4-11-.3-1.2-.5-2.5-.8-3.7.6.2,1.1.3,1.5.3M361.6,92.4c-.3-1.4-.7-2.8-1.2-4.3.5.9,1.1,1.8,1.5,2.7-.1.5-.3,1.1-.4,1.6M359.4,87.3c0-.3-.2-.6-.3-1,.1.3.2.6.3.9,0,0,0,0,0,0ZM356.8,80.8c.2.4.3.8.4,1.3-.2-.3-.4-.6-.7-.9,0-.1.2-.2.2-.3ZM358.6,86.7c.1.5.2,1,.4,1.5-.3.9-.5,2.2-.5,3.9-.5-1.2-.9-2.4-1.4-3.5.5-.5,1.1-1.2,1.5-1.9M355.6,115.6v-.3c.6-.5,1.1-1.2,1.6-1.8.1.6.2,1.3.3,2-.5,1.1-1,2.1-1.5,3-.1.2-.2.4-.3.6v-3.5M358.4,113.2c-.2.4-.3.8-.5,1.2,0-.5-.2-1-.3-1.6.3-.4.6-.9.9-1.3,0,.6-.1,1.2-.2,1.8M357,121.3c.3-.8.7-1.6.9-2.5,0,.4,0,.9.1,1.3-.3.3-.7.7-1,1.1M358.1,121.1c0,.9.2,1.9.2,2.8-.5-.3-1-.6-1.5-.9-.1,0-.2-.2-.3-.2.6-.6,1.1-1.1,1.7-1.7M355.6,120.5c.3-.5.7-1.1,1-1.7.4-.7.7-1.4,1.1-2.2,0,.2,0,.4,0,.6,0,.2,0,.3-.1.4-.5,1.7-1.1,3.2-1.8,4.7-.1,0-.2-.2-.3-.3,0-.5,0-1,0-1.6ZM358.9,118.7v.6s-.2.2-.3.3c0-.8-.2-1.6-.3-2.3.2-1,.4-2,.6-3.1,0,1.5,0,3.1,0,4.5ZM356.9,112.1v.5c-.3.6-.7,1.1-1.2,1.6.2-1.8.4-3.7.5-5.6.3,1.2.5,2.3.7,3.5M349.7,168.1c-.2.7-.3,1.4-.5,2.2-.4.3-.8.7-1.2,1.1.6-1.1,1.2-2.2,1.8-3.3ZM354.7,73.7c-.2-.4-.3-.7-.5-1.1,0,.1.2.2.2.3.2.3.3.5.5.8,0,0-.2,0-.2,0M354.9,119.1v1.2c-.1.2-.2.4-.4.6.2-.6.3-1.2.4-1.8ZM356.3,148c-.2,1.1-.5,2.2-.8,3.3-.5.1-1,.2-1.5.3.8-1.2,1.5-2.4,2.3-3.6ZM352.8,154.8c0-.6.2-1.2.2-1.9h0c0-.1.3-.5.4-.7.5,0,1.1-.2,1.7-.3-.8,1-1.5,1.9-2.4,2.8ZM319.1,181.9c.8-.6,1.5-1.2,2.3-1.8.4-.2.7-.4,1.1-.7,0,0,0,.1,0,.2-1.1.8-2.3,1.5-3.4,2.3ZM363.6,90c.3.7.5,1.3.7,1.9.2,1,.4,2.1.6,3.1-.4-.9-.9-1.8-1.3-2.6v-2.5ZM358.1,101.9c.2.6.4,1.2.6,1.7v1.7c-.2-1.1-.4-2.2-.6-3.4M358.4,129v1.9c-.3.7-.5,1.4-.8,2,.3-1.3.6-2.7.9-4M329.3,175.3c.2,0,.4.1.6.2-.7.3-1.3.6-1.9.9.4-.3.8-.7,1.2-1h.1ZM323.1,179.1h0s.3-.2.5-.2c-.2.1-.3.2-.5.3v-.2h0ZM306.3,184.9c-.8.4-1.6.7-2.4,1.1-.2-.1-.3-.3-.4-.4,1-.2,1.9-.4,2.8-.7ZM304,187.2h0l.4.4c-.6,0-1.2.2-1.8.2.4-.2.8-.3,1.2-.5,0,0,.2,0,.2,0ZM373.1,97.5v-.3s.1-.2.2-.3c.4,1.5.7,3,1,4.6.3,4.8.3,9.6-.1,14.3,0,.1,0,.2,0,.3.2-8.4-.7-15.7-1-18.6M362.7,90.7h0c0-.1,0-.4.1-.5v.7s0-.1,0-.2M358.7,78.5c-.9-1.6-1.9-3.2-2.8-4.7.2-.2.3-.3.5-.5.4-.7.7-1.6,1-2.7,1.2,2.5,2.2,5,3.1,7.6-.6,0-1.2,0-1.7.3ZM354.7,140c-.3.8-.6,1.6-.9,2.3v-.9c.3-.5.6-1,.9-1.5M316.2,180.8c2-1.1,4-2.3,5.9-3.4,0,.3.2.7.2,1-1,.5-2,1-2.9,1.4-1,.3-2.1.7-3.2,1M308.1,188.3c-.4.2-.8.5-1.2.7,0,0,0,0-.1-.1.5-.2.9-.4,1.3-.5ZM308.5,187.5c-.7.3-1.5.6-2.2.9-.2-.2-.3-.3-.5-.5.8-.1,1.7-.3,2.7-.5ZM302.2,192c1.5-.7,3.1-1.4,4.6-2.2.5.4.9.8,1.3,1.2-2,.4-3.9.7-5.9,1M321.2,188.5c-1.5,1.3-3.1,2.5-4.7,3.6-1.2.3-2.4.6-3.7.8,2.8-1.3,5.7-2.8,8.4-4.4ZM375,114.3c0,.9-.2,1.8-.3,2.7,0,0,0,.2,0,.3,0-.5.1-1,.2-1.5,0-.5.2-1,.2-1.5ZM364,80.3c-.2,1.2-.3,2.3-.6,3.5,0-1.4-.1-2.8-.2-4.1.3.2.5.3.8.6ZM350,73.8s.3.3.4.5c-.2-.2-.5-.4-.7-.5,0,0,.2,0,.3,0ZM354.6,124.6c-.3.4-.6.8-.8,1.3v-.5c.3-.3.5-.5.8-.8M352.4,147.1c.2-.4.4-.8.6-1.3,0,.3,0,.7,0,1.1-.2,0-.3.2-.5.2M347.8,151.3s0-.2.1-.2c0,0,0,.2,0,.2M328.6,174.3c.3-.2.7-.3,1-.4-.2.2-.5.3-.7.5h-.3c0-.1,0-.1,0-.1ZM322.9,175.4c.7-.5,1.3-1.1,2-1.7.3.1.7.2,1,.3,0,0,.2,0,.2,0-1,.5-2.1.9-3.2,1.3ZM318.2,178.9c.7-.5,1.5-1,2.2-1.5.3-.1.7-.2,1-.3-1,.6-2.1,1.3-3.2,1.9M306.1,189.2l.2.2c-2.1,1.1-4.2,2.1-6.4,3-1.8.2-3.7.3-5.5.5,4-.9,8-2.1,11.8-3.6ZM320.4,188.2c-2.8,1.7-5.9,3.2-8.9,4.6-.7-.5-1.3-.9-2-1.5,3-.7,6.1-1.5,9-2.5.6-.2,1.2-.4,1.8-.7M370.6,143.6h0c.4-.5.8-.8,1.2-1.2-.2.5-.4,1.1-.6,1.6-.2-.2-.4-.3-.6-.5ZM373,88.1c-.2-.8-.3-1.5-.5-2.2.2.4.4.8.6,1.2.2.9.4,1.8.6,2.7-.2-.5-.5-1.1-.7-1.7ZM364.7,80c0-.6.2-1.2.2-1.7.4,1,.7,1.9,1.1,2.9-.5-.4-.9-.8-1.3-1.2ZM350,57.2c-.5-.4-.9-.8-1.4-1.2,0-.4-.2-.9-.3-1.3.6.8,1.2,1.7,1.7,2.5ZM344.3,55.9c-1.3-1.8-2.7-3.5-4.2-5.2,2.7,1.8,5.3,3.7,7.8,5.7.4,2.3.7,4.2.7,5.9-1.3-2.2-2.8-4.3-4.3-6.4ZM334.1,171.1c.3-.2.5-.5.8-.7.6-.3,1.2-.7,1.7-1-.6.5-1.2.9-1.7,1.3-.2.1-.5.3-.8.4ZM324.1,173.6c-.7.5-1.3,1.1-1.9,1.6-.2-.9-.5-1.8-.7-2.5.8.3,1.7.7,2.6.9ZM371.1,142.2c1.2-3.1,2.2-6.3,2.9-9.6,0,.7,0,1.3,0,2-.6,2.3-1.2,4.5-1.9,6.6-.3.3-.7.7-1.1,1M376.8,102.2c-.1,2.7-.4,5.4-.8,8.2v-.4c.2-4,.2-8.2-.1-12.2.3,1.2.7,2.4,1,3.6v.8M361.9,79.1l.6.2c0,1.2.2,2.3.2,3.5-.2-1.2-.5-2.5-.8-3.8ZM360.6,82c.2-.6.3-1.2.4-1.8,0,0,0-.2,0-.3.4,1.2.8,2.5,1.2,3.7.2.8.3,1.6.3,2.4-.6-1.4-1.3-2.7-2-4.1ZM338.2,49.3c2,2.2,3.9,4.5,5.7,6.9,1.7,2.3,3.3,4.7,4.9,7.2v.9h0c-3.2-4.7-6.8-9-10.8-13.1-.2-.9-.5-1.8-.8-2.7.4.2.7.5,1.1.7M300.5,181.2c-.4.2-.8.4-1.2.6-.2-.2-.4-.3-.7-.5.6,0,1.2,0,1.9-.2M295.1,184.5c1.3-.6,2.7-1.3,4-1.9.5.4,1.1.9,1.7,1.4-1.9.2-3.8.4-5.7.5M289.6,189c-2.3.2-4.5.3-6.9.3.6-.2,1.2-.4,1.7-.6,1.7.2,3.4.2,5.1.3M278.2,192.8c2.7.3,5.5.6,8.3.7-1.6.2-3.2.3-4.8.5-2-.3-4.1-.6-6.1-1,.9,0,1.7,0,2.6,0M376.1,113.6c.5-2.5.8-5,1.1-7.5.1,2.5.1,5.1,0,7.6-.3,1-.7,1.8-1.1,2.7v-2.7M375.6,94.3c-.1-1-.2-2.1-.4-3.2.1.2.2.5.3.7.2.8.3,1.6.4,2.2-.1,0-.2.1-.4.2M357.9,66.4c0-.2,0-.5,0-.7.2.3.5.5.7.8.4.4.8.8,1.2,1.3.5,2.3.8,4.6.8,6.7-.8-2.6-1.7-5.3-2.8-8M353.3,105s.3-.2.5-.3c.1.7.3,1.5.4,2.3-.2,2.7-.4,5.4-.7,7.9,0-.9-.2-1.7-.3-2.6.2-2.4.2-4.9.1-7.3M353.7,104s-.3.2-.5.3c0-1.4-.2-2.8-.3-4.2.3,1.3.6,2.6.8,3.9ZM350.5,145.2c0-.2.2-.5.2-.7v-.2c.1,0,.2-.2.3-.3.7-1.2,1.5-2.4,2.1-3.7v1c-.8,1.3-1.7,2.6-2.6,3.9ZM297.7,193.1c-1.5.6-3.1,1.1-4.7,1.6-2.7,0-5.4-.2-8.1-.5,1.9-.2,3.8-.5,5.6-.8,2.3,0,4.7-.2,7.1-.3M331.6,190c.5-.3,1.1-.6,1.7-.9-.3.3-.7.6-1,.9h-.7ZM374,139.3c-.3.3-.5.6-.8.9.3-1,.6-2,.9-3.1,0,.7,0,1.5,0,2.2ZM379.4,106.7c0-2.1-.2-4.2-.5-6.3.3.7.5,1.5.7,2.2,0,.8,0,1.6.1,2.4-.1.5-.3,1.1-.4,1.7M377.5,94.2c0,.3,0,.5.1.8,0-.1,0-.2-.1-.3v-.5ZM376.6,94.5c0,.1.1.3.2.4,0,.4,0,.7,0,1.1,0-.5-.2-1-.2-1.5M344.4,59.7c-1.9-1.9-3.9-3.8-6-5.6,0-.5-.2-1-.3-1.6,2.2,2.3,4.3,4.7,6.3,7.2ZM349.4,78.2c-.4-.7-.8-1.4-1.2-2.1,0,0,0-.2,0-.3.4.8.8,1.6,1.1,2.4M354.5,84.6c-.2,1-.4,2-.5,3.2-.7-3.1-1.7-6.2-2.8-9.1,1.2,2,2.2,4,3.2,6M352.6,136.3c.2-1,.3-1.9.4-2.8v.9c-.2.7-.3,1.3-.5,2M327.7,194.7c1.7-1.3,3.3-2.7,4.8-4.1,1.2,0,2.6-.3,4-.7-2.8,1.8-5.8,3.4-8.8,4.9ZM351.6,54c-.8-1-1.5-1.9-2.3-2.8-.8-1-1.7-2-2.7-3-.4-1.5-.8-3-1.2-4.4l-.2-.6c2.2,3.4,4.4,7.1,6.4,10.8ZM348,73.4h0v.3c0-.2-.2-.3-.2-.5h.3c0,.1,0,.2,0,.2ZM352.7,117c0-.4.1-.9.2-1.3,0,.4,0,.8,0,1.2,0,0-.2.1-.3.2M346.2,149.8c-.2.2-.3.4-.5.6-.2-.1-.3-.2-.5-.3.3,0,.7-.2,1-.3ZM295.3,180.8s.1,0,.2,0h1.1c-.4,0-.8,0-1.2,0ZM375.1,83.2c.4,1.6.8,3.2,1.2,4.8.2,1.7.4,3.3.5,5-.2-.4-.4-.9-.6-1.3-.8-4-1.8-8-3.1-11.9-.7-3-1.3-5.9-2-8.6,1.6,4,2.9,8,4,12M352.7,108.6c-.2-1-.3-2-.5-3,.2,0,.3-.2.5-.2,0,1.1,0,2.2,0,3.2M352.4,114c0-1.7-.2-3.3-.3-5,.2,1.1.3,2.2.4,3.3,0,.5,0,1.1-.2,1.7M350.9,125.2c0-.3.2-.6.3-.9,0,.5-.1,1-.2,1.4h0v-.5M352.6,127.2s0-.1,0-.2h0c0,0,0,.1,0,.2ZM296.3,179.9c-.4-.3-.9-.5-1.4-.7,2.7-.4,5.4-1,8-1.6-2.2.9-4.4,1.7-6.7,2.3M270.2,191.6c-.8-.2-1.8-.5-2.7-.8,1.1.3,2.1.5,3.2.7-.2,0-.3,0-.5,0ZM268.1,191.9c-.4,0-.8,0-1.3,0-.5-.4-1-.8-1.5-1.2,1.2.4,2.3.8,3.4,1.1-.2,0-.5,0-.7.1ZM246.3,189.3c2.7,1,5.4,1.8,8.1,2.5.7.3,1.5.6,2.3,1-2.1,0-4.3-.1-6.5-.3-2.3-1.4-4.7-2.8-6.9-4.3,1,.4,2,.8,3,1.2ZM277.3,198.7c3.1.5,6.2.9,9.2,1.1-2.4.3-4.8.5-7.2.6-.8-.5-1.7-1.1-2.6-1.6.2,0,.3,0,.5,0M344.7,41.2c-.4-1.4-.7-2.5-.9-3.5,2.3,2.7,4.5,5.5,6.4,8.4.7,2.4,1.2,4.6,1.5,6.6-2.2-4-4.5-7.9-6.9-11.5M337.8,54.5c0,.5.2,1,.2,1.5-1.1-1.4-2.3-2.7-3.5-4.1,0,0,0-.2-.1-.2,1.2.9,2.3,1.8,3.4,2.8M346.9,73c.3.6.7,1.2.9,1.8,0,.1,0,.3,0,.4-.4-.8-.9-1.5-1.4-2.3.2,0,.3,0,.5.2ZM347.7,78.9v-.2c.5.8.9,1.7,1.4,2.5-.5-.8-.9-1.5-1.4-2.3M347.9,137.3c-.7,2.5-1.5,5-2.3,7.4-.6,1.3-1.2,2.7-1.8,4-.7-.8-1.3-1.7-1.8-2.7,2.3-2.7,4.3-5.6,6-8.7M346.9,137.8c.6-1,1.2-2.1,1.7-3.2,0,0,0,.1,0,.2-.5,1-1.1,2-1.7,3ZM271.1,201.4c-.6-.1-1.2-.3-1.7-.4.6,0,1.1,0,1.7,0v.3h0ZM286.6,207.8c1.5-.2,3-.4,4.4-.7,2.1.8,4.1,1.6,6.2,2.2-3.7.7-7.5,1.3-11.2,1.6-2.3-.2-4.7-.4-7-.7,2.5-.7,5-1.5,7.6-2.5ZM306.6,207c-.3,0-.5.2-.8.2.2,0,.4-.2.6-.2h.2ZM364.2,54.4c1,1.5,1.5,2.4,2.4,4,.5,1.4.9,2.8,1.4,4.3-1.2-2.4-2.5-4.8-3.8-7.1v-1.2ZM318.8,33.5c.2,0,.4,0,.6-.1,0,.2.2.3.3.5-.3-.1-.6-.3-.8-.4ZM339.6,157.1c.6-.8,1.1-1.7,1.7-2.6-.4.7-.8,1.4-1.2,2.1-.2.2-.3.3-.5.5ZM278.7,183.1c-.5,0-1,0-1.4,0,.7-.8,1.3-1.6,2.1-2.5,2.1.2,4.2.4,6.2.6-2.2.7-4.4,1.3-6.9,1.8M250.7,189.2c-.3,0-.6-.2-.9-.2-.1,0-.2-.1-.3-.2.4.2.8.3,1.2.4ZM249.9,193.1c3.3,1.9,6.6,3.6,9.9,5.1-4.4-1.5-8.9-3.3-13.3-5.5,1.2.2,2.3.3,3.4.3ZM298.5,209.7c1.2.3,2.4.7,3.6.9-3,.3-6.1.5-9.2.5,0,0,.2,0,.2,0,1.6-.4,3.3-.8,4.9-1.3h.3c0,0,0,0,0,0ZM371.6,155.8c-.4,1.6-.8,3.2-1.3,4.8-1.1,1-2.3,2-3.5,2.8,1.7-2.5,3.3-5,4.9-7.7ZM377.8,142.4c-.3,1.5-.6,2.9-1,4.3-.3,0-.5,0-.8,0,.5-1.1.9-2.1,1.3-3.1.2-.4.3-.8.5-1.3ZM380.8,103.9c.5-2.5,1-5,1.3-7.4.8,5.6,1.1,11.1.9,15.9v.3c-.6-2.9-1.3-5.8-2.2-8.7ZM364.3,53.4c0-.3.1-.5.2-.8.3.8.6,1.7.9,2.5-.3-.5-.7-1.1-1.2-1.8M363.8,53c0-.4-.2-.8-.3-1.1.2,0,.4,0,.7.1-.2.3-.3.7-.4,1M363,53.6c-.2-.6-.3-1.2-.5-1.8h.4c.2.9.4,1.6.5,2.3-.1-.2-.2-.3-.3-.5M359.1,53.4c-.1.2-.2.5-.3.7-2.3-3.7-4.9-7.3-7.6-10.8,2.8,3.2,5.5,6.6,8,10.1ZM320.1,42.3c1.8,1,3.5,2.1,5.3,3.2.2.4.4.8.5,1.3-1.8-1.5-3.8-3-5.8-4.5ZM338.7,62.3s.3.3.5.5c0,.1.1.2.2.4-.2-.3-.5-.5-.7-.8M349.4,88.7c.1.3.2.6.3.8-.2,0-.3-.1-.5-.2-.2-.7-.3-1.4-.5-2.1.2.5.5,1,.7,1.5ZM350,93.4c-.2-1.1-.4-2.2-.7-3.3.2,0,.4.2.6.2v.2c0,1,0,2,0,2.9ZM256.4,183.6s-.3-.2-.4-.3l-1.9-1.6h.2c2.6,1,5.2,1.8,7.8,2.5-1.8-.2-3.7-.4-5.7-.7ZM276.2,203.3c-1.1-.3-2.3-.6-3.3-.9,3.5.7,7,1.2,10.5,1.5-2.4-.1-4.8-.3-7.2-.6ZM281.7,211.2c-2.2.1-4.4.1-6.7,0,.8-.2,1.6-.4,2.4-.6,1.4.2,2.8.4,4.2.5ZM371.1,160.8s-.2.3-.3.5h0s0-.3,0-.3c0,0,.2-.1.2-.2ZM378.1,147.1c-.6,1.5-1.2,2.9-1.8,4.2.4-1.3.8-2.7,1.1-4,.2,0,.5-.2.7-.2ZM364.7,51.2s-.1-.3-.2-.4c0,.1.2.2.2.3h0M294.3,33.1c.2.3.4.6.6.8-.9-.4-1.8-.8-2.7-1.2.7,0,1.4.2,2.1.3M322.8,48.4s-.2-.2-.3-.2h0c.2,0,.3.1.4.2ZM337.8,59.8c.2.3.3.7.5,1-.3-.3-.7-.7-1-1h.5ZM349.3,104.4c0,.5-.2,1.1-.2,1.6v-3.2c0,.5.2,1,.3,1.4v.2h0ZM349.4,110.4h0v-.6c.1,0,0,0,0,0,0,0-.2,0-.3,0,0-.1,0-.2,0-.3.2-.8.3-1.8.4-2.7,0,0,.1,0,.2-.2,0,.4.2.9.2,1.3,0,.8,0,1.8,0,2.7,0,.7-.1,1.4-.2,2.1-.2-1-.4-1.7-.5-2.3M326.3,156.3c-.2.2-.6.7-1.3,1.3h0c0,0,.4.5.4.5h0c1.8-1.7,1.9-2,1.8-2.3,0-.2-.2-.2-.4-.2,1.2-1.2,2.4-2.3,3.5-3.5,1.5-.5,3-.7,4.4-.7h.1c-3,2.9-6.3,5.6-9.8,8-2.8,1.8-5.8,3.5-8.9,4.9,0,0-.2,0-.2-.1,3.6-2.3,7-5,10-7.9.1,0,.3,0,.4,0M285,177.2c-.9.2-1.8.3-2.8.4.2-.2.3-.3.4-.5h2.3M284.3,174.5s-.3.4-.5.6c-.5-.2-1.1-.3-1.7-.4.7,0,1.5,0,2.2-.2ZM283.2,176.5l.7-.8c.9.2,1.8.5,2.6.8h-3.3ZM280.5,178.4s-.3.3-.5.5c-.7-.1-1.3-.2-2-.3.8,0,1.7-.1,2.5-.2M314.5,35.7c1.7,1.1,3.3,2.2,4.9,3.4-1.6-.6-3.3-1.2-4.9-1.8h0c0-.5,0-1,0-1.6M338.2,62.7s-.2,0-.3-.2c0-.2-.2-.3-.2-.5.2.2.3.4.5.6M337.4,63.1c.2.5.5,1.1.9,1.8-.3-.3-.5-.6-.8-.9h.1c0-.1,0-.2,0-.2-.5-.4-.9-.8-1.5-1.3,0,0,0,0-.1-.1.5.3,1,.5,1.5.8M347.2,78v.2c-.8-1.2-1.6-2.5-2.4-3.6v-.3c.8,1.2,1.7,2.5,2.4,3.8M348.6,89.8c.3,1.5.7,3.1.9,4.7-.5-1.7-1.1-3.4-1.7-5.1.2.2.5.3.7.5ZM349.8,99.1v.3c0-.2,0-.4-.1-.5,0,0,0-.1,0-.2,0,.1,0,.3,0,.4M325.3,155.8s-.4,0-.6,0c.7-.5,1.4-1,2.1-1.5-.5.5-1,1-1.5,1.5M252.6,180.4h-.2c0,0,.1,0,.2,0ZM241.3,180.3l-3.7-1c-.2-.5-.3-1-.5-1.4,1.3.8,2.7,1.7,4.2,2.5ZM241.1,191.9v.3c-.2-.2-.4-.3-.7-.4.2,0,.5,0,.7.1ZM275.9,210.4c-1,.2-1.9.5-2.8.7l-.2-1.2c1,.2,2,.4,3,.5ZM330.4,25.5c-.2-.2-.5-.4-.7-.6.3.2.6.4.9.6h-.2M314.9,34.1s0,0,0,0h0c0,0,0,0,0,0ZM305.7,40.6c1,.6,2.1,1.2,3.2,1.8-1.2-.6-2.4-1.1-3.6-1.7.2,0,.3,0,.5-.2M326,51.3c.5.5,1,1,1.5,1.6-.5-.3-1-.7-1.6-1-.5-.5-1-1.1-1.5-1.6.5.3,1,.7,1.5,1.1M349.2,100.6c.1.5.2,1,.3,1.5-.1-.5-.2-1-.3-1.5ZM344.8,132.9h0c.2-.2.3-.3.4-.5-.2.2-.3.3-.5.5M337.5,148.6c.9-1.7,1.8-3.5,2.6-5.2,0,.3.2.6.3.9-.5.9-1,1.9-1.6,2.8-.5.5-.9,1-1.3,1.5ZM242.1,179.7c-1.8-.9-3.7-1.9-5.4-2.9-.1-.3-.2-.6-.3-.9,1.7,1.2,3.6,2.5,5.7,3.8ZM294.4,28.9c-.8-.3-1.7-.6-2.6-.9,0-.2-.2-.3-.3-.5,1,.4,1.9.9,2.8,1.4ZM335.3,59.5c.3.4.7.7,1,1.1.1.4.3.8.6,1.5-.7-.4-1.5-.8-2.2-1.2-.5-.7-.9-1.3-1.3-1.9-.6-.8-1.3-1.7-1.9-2.5,1.3,1,2.6,2,3.9,3M349.4,97.4h0c-.1-.5-.2-1-.4-1.5.2.5.3,1,.4,1.5ZM341.6,138.4c-.4,1-.8,2-1.2,3,0-.3-.1-.6-.2-.9.5-.7.9-1.3,1.4-2M314.2,164.4l-1,.7c-.3.2-.5.3-.8.5v-.2c0-.3,0-.7.2-1.1.6,0,1.1,0,1.6.2ZM302.1,168.5h0c0,0,.4.6.4.6h0c.5-.4,1.2-.8,2.2-1.5,1,0,2,0,3,.2-.3,0-.5.2-.8.3-6.4,2.2-13.2,3.6-20.1,4.3.1-.2.2-.3.2-.5,5.3-.8,10.6-2.2,15.6-4.1.3,0,.5,0,.8,0-.5.3-.9.6-1.3.8M249.4,179.8c-4.6-1.3-9.1-3-13.5-5.1-.3-.9-.7-1.8-1.1-2.7,4.6,3,9.5,5.6,14.5,7.8M230.2,177.1c-1.8-1.6-3.4-3.2-4.7-4.7,1.8,1.7,3.6,3.4,5.5,5-.3,0-.6-.2-.8-.3M378.5,64.9c.3,1.7.8,3.9,1.5,6.5,1.3,5.4,3.1,12.6,4.2,20.7-.4-.4-.8-.6-1.3-.7-.1,0-.2,0-.4,0,0-.3,0-.7,0-1h0c0-.1-.7-.1-.7-.1h0c0,.4,0,.7,0,.9-1.7-9-5.2-22.2-12.6-34.4-.7-1.2-1.4-2.2-2-3.2-.3-.8-.6-1.7-.9-2.4,1.1-.1,2.5.4,4.5,1.5.7.4,1.5,1,2.6,2v.2c.1,0,.2.2.3.2,1.7,3,3.3,6.3,4.9,9.6h-.1v.2ZM346.5,22.5s.3,0,.6,0c1.8,1.5,3.5,3.1,5.2,4.8l-.3.2h0c4,6.4,7.3,12.7,10.1,19.2-.2-.2-.4-.4-.5-.7h0c0,0-.5.3-.5.3h0c.7.9,1.3,1.7,2,2.5.3.8.7,1.6,1,2.5-.2,0-.5,0-.7,0h0v-.2l-.7.2s-.3,0-.4,0c-.3-.8-.5-1.7-.8-2.5h0c0-.1-.7.1-.7.1h0c.3.9.6,1.7.8,2.5h0c-1.5-2.4-3.2-4.7-4.9-7-3.1-4.1-6.5-8.1-10.1-11.7-.8-3-1.1-5.2-.8-6.9v-.3c0-1.7.2-2.7.6-2.9M328,22.7c-2.2-1.4-4.4-2.7-6.7-4-9.7-6.7-20.4-12.1-31.2-15.9.2-.1.4-.2.6-.3,13.2,4.6,26.3,11.7,37.3,20.2ZM296.7,8.8c-2.5-.7-5.3-1.3-8.2-1.9,0-.2,0-.4,0-.6.2-1,.3-2.1,1.1-3,8.9,3.1,17.9,7.4,26.3,12.6-6-2.8-12.5-5.3-19.3-7.2M291.8,34.6c.8.2,1.6.5,2.4.7.8.3,1.7.7,2.6,1,.1.2.2.3.3.4-2.3-.7-4.7-1.2-7.1-1.7,0,0-.6-.1-1.6-.2-4.1-1.1-8.4-1.9-12.7-2.5-1-.2-2-.3-3.1-.3,2.5-.1,4.9-.2,7.3-.1h1.2c1.7.2,3.4.5,5,.8,1.9.5,3.8,1.1,5.7,1.8h0c0,.1,0,.1,0,.1h0ZM297.8,37.7s.2.2.3.3c-.9-.3-1.9-.7-2.8-1,.8.2,1.7.5,2.5.7ZM315.6,48c-1.5-1-3.1-1.9-4.7-2.7-1.8-1-3.7-2-5.6-2.8,3.6,1.6,7,3.5,10.3,5.6ZM328.3,54.2c.3.2.7.5,1,.7,1.2,1.4,2.4,2.9,3.5,4.3-.3-.3-.7-.7-1.1-1-.8-.9-1.7-1.8-2.5-2.6-.3-.4-.7-.8-1-1.2,0-.1,0-.2,0-.3ZM336.4,64.9s0,0,0,.1c-.2-.3-.5-.7-.8-1,.2.3.5.5.7.8h0c0,.1,0,0,0,0ZM341.5,74.7s.1.3.2.4c0-.2-.2-.3-.2-.5,0,0,0,0,0,0ZM346,82.2s0,.2,0,.2c0-.2-.1-.5-.2-.7,0,.2.2.3.3.5ZM343.8,130.9c.5-1.2.9-2.4,1.3-3.6,0,0,0,0,0-.2-.5,2-1.1,4-1.7,5.9-.3.3-.7.5-1,.8.4-.9.8-1.9,1.2-2.8h0c0-.1,0-.1,0-.1ZM341.3,137.5c-.4.7-.8,1.3-1.3,1.9v-.5c.4-.4.8-.8,1.1-1.2l.2-.2h0ZM314.6,162.2l.3.3h0c.3-.5.7-.8,1.2-1.2.3-.2.7-.4,1-.6,1.7-.9,3.2-1.9,4.7-2.9.6-.3,1.2-.6,1.8-1h.1v-.2c.2,0,.5-.1.7-.2-2.4,2.2-4.7,3.8-7.4,5.8l-2.2,1.5c-.6-.2-1.3-.3-2-.3.1-.2.2-.4.4-.7h.2c0,0,.3-.3.5-.3.2-.1.5-.3.7-.4M311.8,165.8h0c-.5.4-1,.7-1.5.9-.5.2-.9.3-1.4.5-1.1-.2-2.2-.3-3.2-.3.7-.4,1.4-.9,2.2-1.3l.3-.2c.8-.3,1.5-.7,2.2-1.1.3,0,.7,0,1-.1,0,.5,0,1,.3,1.6M225.5,159.2s.2.2.3.4v.2c0,0,.4.3.4.3.2.2.4.5.7.7-2.1-1.6-4.1-3.2-6-4.9.7.5,1.5,1,2.3,1.5.8.5,1.6,1.1,2.4,1.6h0v.2s0,0,0,0ZM221.8,160.3c1.3,1.1,2.8,2.2,4.3,3.2,2.2,1.9,4.4,3.7,6.7,5.4.2.5.5,1,.7,1.4-4.5-3.1-8.9-6.7-12.9-10.6-.8-.8-1.7-1.7-2.5-2.5,1.2,1.1,2.5,2.2,3.7,3.2M233.7,182.7c-5.9-3-11.5-6.8-16.9-11.4,3.1,1.9,6.1,3.5,8.9,4.8.8.4,1.8.7,2.9,1.2,2.5,2.4,5.2,4.7,8,6.9-1-.5-2-.9-3-1.4M215.9,171.4c7.1,6.1,14.9,11.2,23.4,15,.3,1,.7,2.1,1,3.1l-.3-.2-.3.6h.1s.3.2.5.3l.3.2c0,.3.2.5.3.8-.8-.2-1.5-.3-2.3-.5-1.8-1-3.6-2.2-5.3-3.3-7.5-5-14.6-11.6-20.6-18.9.3.2.6.4.9.6.7.7,1.5,1.4,2.3,2.1h0c0,0,0,.2,0,.2h0ZM242.4,195.6c.3.9.7,1.8,1,2.7-3-1.7-5.9-3.5-8.7-5.5,2.5,1,5.1,2,7.6,2.8ZM343.5,197.3s-.3.3-.5.4c-.3,0-.6.2-.9.3.5-.2.9-.5,1.4-.7M373.4,167.6c1.5-2.3,2.9-4.7,4.2-7.1-.6,1.5-1.3,3-2,4.5-.7.9-1.5,1.8-2.2,2.6ZM274.1,31.3c-1.9,0-3.8.2-5.7.3-2.2-.2-4.5-.2-6.7-.2h-.3c2.3-.2,4.6-.3,7.3-.3s2.3,0,3.7,0c.6,0,1.2,0,1.8,0M278,34c-4.9-.2-9.9-.1-14.5.3-6.7.4-13.2,1.4-19.2,3.1.4-.2.8-.3,1.2-.4,4.3-1.5,9.6-2.8,15.3-3.7,1.5,0,2.9-.1,4.4-.1,4.3,0,8.6.3,12.8.8ZM268.3,32.3c2.4.2,4.9.4,7.2.7.4,0,.8.1,1.2.2-3.4-.4-6.9-.7-10.3-.7.6,0,1.2-.1,1.8-.2M343.1,80.4c.2.6.5,1.3.7,1.9-.5-1.3-1-2.5-1.5-3.7.3.6.5,1.2.8,1.8M229.7,189.8c-1.1-.5-2.1-1.1-3.2-1.6.6.2,1.3.4,1.9.6.4.3.8.7,1.2,1ZM257.5,217.8c-7-1.2-13.8-3-20.4-5.4,6.8,2.3,13.5,3.9,19.8,5,.2.2.4.3.7.4ZM272.9,173.5c.6,0,1.2.2,1.8.3-3.1-.1-6.3-.4-9.4-.9,2.5.3,5.1.5,7.6.6M330.2,207.8c-.2.3,0,.5,0,.5-2.2.8-4.4,1.4-6.6,1.9,3.4-1.6,6.8-3.4,10.1-5.4,0,0,0,0,0,0-.7.6-1.3,1.1-1.9,1.5-.8.7-1.4,1.1-1.6,1.4M392.2,107.8c-.2-.2-.5-.2-.8-.2-.5.2-1,.8-1.7,2.2,0-2.4-.2-4.9-.3-7.2-1.2-14.9-6.5-32.1-14.4-46.4.3.3.6.6.9.9,2,2,3.1,3.1,3.8,3.1h.1v-.6h-.1c-.4,0-2-1.7-3.3-2.9-.8-.7-1.6-1.6-2.4-2.3-4.7-8.2-10.7-16.3-17.2-23.3,0,0,0,0,0-.2h0c0,0,0,0,0,0-2.8-3-5.9-5.9-8.9-8.5h0c0-.1,0-.2,0-.2,0,0-.2,0-.3-.2-3.2-2.7-6.4-5.1-9.6-7.2h0c0,0-.3.5-.3.5h0c3,2,6,4.3,8.9,6.7,0,0-.1,0-.2,0-.9.5-1,2.2-.9,3.5v.2c-.3,1.5-.1,3.5.5,6-8.3-8.2-17.9-15.3-28.5-20.8-1-.5-14.5-6.2-23.4-9.2.7,0,1.5-.2,2.3-.2h.1v-.7h-.1c-1.3,0-2.6.2-3.6.4-2-.7-3.5-1.1-4.5-1.2h-.1v.6c-.1,0,0,0,0,0,.8.2,2,.5,3.5.9-.2,0-.5.2-.7.3h-.2c-.4.3-.8.5-1.1.8-1-.3-1.9-.6-2.8-.9h-.1l-.2.6h.1c.8.3,1.6.5,2.5.8-.8,1-.9,2.1-1.1,3.1,0,.2,0,.4,0,.5-7.7-1.4-16.4-2.1-25.1-2.1s-8.1.2-12,.5h-.1v.7h.2c3.9-.3,7.9-.5,12-.5,8.7,0,17.4.7,25,2.1,0,.2,0,.3-.2.5-.1.3-.3.6-.4.9-.3,0-.6-.2-.9-.3h-.1l-.2.6h.1c.3.1.5.2.8.3-.2.3-.4.7-.6,1-1.1,1.8-2.3,3.6-1.7,5.7,0,.3.2.5.3.8-6-1.5-12.2-2.5-18.4-2.9-2.5-.2-5.1-.3-7.7-.3-9.3,0-18.5,1.2-27.4,3.7h-.1l.2.7h.1c8.9-2.5,18.1-3.7,27.3-3.7s5.1,0,7.6.3c6.3.5,12.6,1.5,18.7,3,.7,1.6,1.6,3.2,2.5,4.7-.9-.2-1.7-.4-2.5-.6h-.1l-.2.6h.1c1,.2,2,.5,3.1.8l1.2,1.9.2.4c-.7-.1-1.5-.2-2.2-.3-3.2-1.3-6.5-2.3-9.7-3.2h-.1l-.2.6h.1c2.5.7,5,1.5,7.4,2.4-2-.2-4-.3-6-.3-5.7-1.2-11.6-2.1-17.6-2.5h-.1v.6s0,0,0,0c4.8.4,9.6,1,14.2,1.9-5,0-10,.4-15,1.2-1.8-.1-3.6-.2-5.4-.2-5.4,0-10.5.5-15.1,1.6h-.1l.2.7h.1c4.6-1.1,9.6-1.6,15-1.6h2.3c-1.8.3-3.6.7-5.4,1.2-10.5,2.7-20.4,6.8-29.3,12.3h-.1l.3.6h.1c.5-.4,1-.7,1.7-1.1h.1c3.7-2.2,7.5-4,11.6-5.2,8.4-2.8,17.3-4.2,26.4-4.2s10.5.5,15.7,1.4c-2-.2-4-.3-6-.4-1.3,0-2.5,0-3.7,0-3.5,0-6.3.2-9.5.5-5.4.4-10.9,1-16.1,1.9h-.1v.2c-2.4.4-4.9,1-7.2,1.5h-.1l.2.7h.1c8.5-2.1,17.1-3.2,25.7-3.2h2.4c-1.1.2-2.2.3-3.3.5-1.3,0-2.6.2-3.8.2h-.1v.4c-4.3.8-8.2,1.8-11.5,3-2.7,1-5.4,2.1-8.1,3.3-5.2,2-10.2,4.5-15,7.6h-.1c0,0,.3.6.3.6h.1c2.4-1.7,4.9-3.1,7.5-4.4-1.1.7-2.1,1.3-3.1,2-9.2,4.9-17.5,11.2-24.7,18.7-7.2,7.5-13.2,16.2-17.7,25.5h0c0,.1.5.4.5.4h0c8.1-17,20.7-31.1,36.6-40.9-3.7,2.8-7,6-10,9.3-.9,1-1.8,2.2-2.8,3.3l-.4.5h0c-5.6,7.3-9.9,15.6-12.2,23.9h0c0,.1.6.3.6.3h0c.3-.9.5-1.7.8-2.5h0c2.5-7.8,6.5-15.2,11.7-21.8,4.2-4.5,15.5-15.6,30.6-21.9,8.5-3,17.2-4.9,26.1-5.4h2.5c6.3,0,12.7.7,19.1,2,7.6,1.8,15.5,5,22.9,9,6.4,3.5,12.2,7.5,17.4,12.1,1.1,1.1,2.1,2.2,3.1,3.3,2.9,3.5,5.7,7.4,8,11.4l.4.9c1.8,4.5,4.2,10.1,6.2,15.6,1.3,5.9,2,12,2.1,18.4v.8c-.1,1.7-.3,3.5-.6,5.2,0,.2,0,.3,0,.3-.2.5-.2,1-.2,1.4-.7,3.7-1.7,7.3-3.2,11h0c0,.1.3.3.3.3-.5,1.5-1.1,2.9-1.7,4.2-.8.5-1.7,1.8-2.2,2.9-.3.7-.5,1.5-.7,2.4-.5.4-.9.7-1.2,1h0c0,0,.4.5.4.5-1.3,2.1-2.7,4.2-4.3,6.2-5.2,5.4-10.3,9.8-15.8,14-1.2.6-2.3,1.3-3.2,2-1.2.7-2.2,1.4-2.8,2.1-.8.5-1.6,1-2.5,1.6-.2,0-.3.2-.5.2-1.1.2-2,.5-2.5.8-.3.2-.4.3-.4.5-2.2.9-4.3,1.7-6.5,2.4-1,.2-2,.5-2.9.8h-.1c-5.4,1.7-11.2,2.8-17,3.5h-.1v.2c-1.9.2-3.8.2-5.6.2h-.1v.6h-1.1c-3.2-.5-6.2-.8-9.4-1h-.1v.6h.4v.2c-6.8-1.1-13.6-2.8-20.5-5.4h-.2c-6.2-2.5-13.9-6.6-19.6-10.4-3.6-2.5-6.9-5.2-9.9-8-1.7-1.6-3.1-3-4.1-4.1-.9-1-1.5-1.5-1.8-1.7h0l-.3.4c-.5-.8-1-1.6-1.5-2.4h0c0-.1-.6.2-.6.2h0c1.5,2.5,3,4.8,4.7,7.1h-.1c0,0,0,.2,0,.2.5.7,1.1,1.3,1.7,2,2.7,3.5,5.5,6.7,8.5,9.5,4.3,4.2,9,8,13.9,11.3.3.8.7,1.7,1.1,2.6-.8-.7-1.5-1.3-2.2-2h0c0,0-.5.4-.5.4h0c.3.4.6.7,1,1-2.1-1.1-4.2-2.3-6.2-3.5-1.2-1-2.3-2-3.3-2.9-1.7-1.5-2.9-2.8-4.3-4.1l-1.8-1.8c-2.6-2.8-4.8-5.5-6.1-7.5h0c0,0-.3.1-.3.1-8.1-12.6-13.6-26.9-15.9-41.4h0c0-.1-.7,0-.7,0h0c2.1,13,6.7,25.8,13.4,37.4-5.2-8.1-10.9-18.2-12.6-25.1h0c0-.1-.7,0-.7,0h0c2.7,10.6,14.9,29.8,22.1,38.3,1.3,1.6,2.5,3,3.7,4.5.5.7,1.1,1.3,1.6,2l-.4.3h0c1.7,2.2,3.7,4.3,5.8,6.4-.5-.2-1-.4-1.5-.6-3.7-1.7-7.8-4-12-6.8-2-1.9-3.9-3.8-5.7-5.9-3.3-4.7-6-9.6-8.2-14.6-1.6-3.6-2.9-7.3-4-11-4.1-16.1-3.8-34.1.9-50.6h0c0-.1-.6-.3-.6-.3h0c-2.3,8-3.5,16.2-3.8,24.4,0-3.5.3-6.9.8-10.4h0c0-.1-.6-.2-.6-.2h0c-1.8,12.8-.9,25.3,2.6,37.3v.2s.1.3.2.4c1.4,5.4,3.5,10.9,6.1,16.3-7.2-10.4-12.1-21.6-14.1-32.7h0c0-.1-.7,0-.7,0h0c2.2,12.3,7.7,24.6,16.1,35.7.1.2.2.3.3.4v.2c1.1,1.8,2.1,3.7,3.2,5.4-1.2-.9-2.3-1.8-3.5-2.8-3-2.5-5-4-6.3-4s-.4,0-.6.2c-.7.4-.8,1.4-.5,3.2h0c0,.1.7,0,.7,0h0c-.3-1.9,0-2.5.2-2.6,0,0,.2,0,.3,0,1.2,0,4.3,2.5,5.9,3.8,1.6,1.3,3.2,2.6,4.9,3.8,5.5,8.6,12.2,16.5,19.6,22.8-1.3-.5-2.7-.9-4-1.4-5.3-3.1-10.4-6.7-15.1-10.8-6.7-5.8-12.7-12.4-17.6-19.4-5.2-7.4-9.1-15.2-11.7-23.3-1.6-5.4-2.8-10.2-3.7-14.2h0c0-.1-.7,0-.7,0h0c.9,4.2,2.1,9,3.7,14.4,2.7,8.1,6.6,16,11.8,23.4,5,7.2,10.9,13.7,17.7,19.6,3.8,3.2,7.8,6.2,11.9,8.9-.2,0-.4-.2-.5-.2h-.1l-.3.5h.1c1.3.6,2.7,1.2,4.1,1.7,3,1.8,6.1,3.3,9.2,4.8,3.7,2.8,7.7,5.4,11.7,7.6.4,1,.8,2,1.2,2.9.2.5.4,1,.7,1.5-14.8-4.6-29.3-12.9-40.9-23.3h0c0,0-.4.4-.4.4h0c11.8,10.7,26.6,19.1,41.7,23.6,1.1,2.2,2.3,4.2,3.5,6-3.3-.7-6.6-1.6-9.9-2.7h-.1l-.2.6h.1c3.5,1.2,7,2.1,10.6,2.9,1.7,2.2,3.5,4,5.4,5.4-10.3-1.8-21.3-5.3-32.7-10.3-10-5.2-19.9-12.2-28.4-20.2-8.3-7.8-15.5-16.8-20.9-26,0,0,0,0,0,0h0c0,0-1.7-2.6-1.7-2.6l-.5.3h0c5.6,10.2,13.4,20.1,22.5,28.7,7.5,7.1,16.1,13.4,24.9,18.4,0,.1,0,.3.1.4h.2c0,0,0,0,0,0,0,0,.6.2,1.1.4.7.3,1.5.7,2.3,1,.6.3,1.2.6,1.8.9,11,5.4,22.9,9.1,35.1,11,2.9,1.3,6.3,1.9,10,1.9s2.8,0,4.4-.3v.5h.1c2.7,0,3.4-.3,3.7-.7h.5c5.1,0,10.2-.3,15.1-1,9.9-1.3,19-3.9,27.9-7.9,5.6-.9,10.9-2.7,15.9-5.4h.1l-.3-.6h-.1c-.5.3-1.2.7-1.8,1h0c0,0-.2,0-.2,0-1.8.9-3.2,1.3-3.9,1.5.3-.2.7-.6,1.1-.9h0c.6-.5,1.2-1,1.9-1.5.8-.7,1.6-1.5,2.3-2.2,2.3-1.5,4.7-3.2,6.9-4.9,4.3-1.4,8.4-3.5,12.3-6.3-4.2,3.8-8.7,7.2-13.6,10.2h-.1l.3.6h.1c8.3-5.1,15.7-11.5,22.1-19,1.6-1.8,3.1-3.8,4.5-5.9.7-.8,1.4-1.5,1.9-2.2h0c.6-.8,1.3-1.6,1.4-1.7l.6-.5-.7.3v-.4h-.2s-.2,0-.6.5c1.7-2.8,3.3-5.7,4.7-8.6,1.5-1.9,2.9-4,4.3-6.4h0c0,0-.5-.4-.5-.4h0c-.8,1.5-1.7,2.8-2.5,4,1-2.4,2-4.8,2.7-7.2.9-1.9,1.7-3.8,2.5-5.8.9-2.3,1.8-4.8,2.5-7.2h0c3-10,4.5-20.4,4.5-31,.5-1.3,1.3-3,1.9-3.2,0,0,.1,0,.2,0h0c0,0,.4-.5.4-.5h0c0,0,0-.2,0-.2Z"/>
</svg>
